<svg id="svg" version="1.1" xmlns="http://www.w3.org/2000/svg" xmlns:xlink="http://www.w3.org/1999/xlink" width="400" height="400" viewBox="0, 0, 400,400"><g id="svgg"><path id="path0" d="M192.655 63.870 C 190.656 64.142,188.955 64.430,188.875 64.510 C 188.795 64.591,189.082 67.379,189.513 70.707 C 190.897 81.394,189.647 84.157,183.727 83.490 C 180.292 83.103,179.634 81.755,178.466 72.709 L 177.601 66.016 176.594 66.030 C 175.114 66.050,168.009 67.017,167.800 67.226 C 167.324 67.702,169.619 81.943,170.469 83.789 C 173.234 89.796,181.397 91.706,191.406 88.689 C 199.739 86.176,201.187 82.855,199.544 70.020 L 198.682 63.281 197.485 63.328 C 196.827 63.354,194.654 63.598,192.655 63.870 M212.738 64.848 C 208.121 65.664,204.688 68.945,204.688 72.542 C 204.688 76.175,207.495 78.016,216.203 80.093 C 221.954 81.465,222.602 81.793,221.649 82.846 C 220.231 84.413,216.856 84.251,214.795 82.516 C 213.775 81.658,212.769 81.348,209.217 80.796 C 202.642 79.775,202.658 79.766,204.537 83.537 C 207.899 90.284,223.986 93.000,229.876 87.815 C 236.049 82.381,232.972 77.851,221.128 74.934 C 214.826 73.382,213.818 72.532,217.023 71.474 C 218.866 70.866,220.828 71.281,222.372 72.604 C 223.500 73.571,229.904 75.000,233.112 75.000 C 234.698 75.000,232.618 70.406,230.194 68.555 C 226.490 65.726,217.986 63.921,212.738 64.848 M154.303 71.500 C 149.352 73.800,149.565 73.181,151.960 78.297 C 153.048 80.620,153.871 82.588,153.789 82.670 C 153.707 82.751,151.019 84.026,147.816 85.501 L 141.992 88.184 139.929 83.858 C 138.794 81.479,137.803 79.470,137.728 79.394 C 137.652 79.319,135.567 80.173,133.095 81.294 L 128.601 83.331 130.247 86.880 C 131.152 88.833,133.446 93.819,135.344 97.961 C 137.242 102.104,138.917 105.443,139.065 105.383 C 141.830 104.258,147.656 101.348,147.656 101.093 C 147.656 100.905,146.877 99.044,145.924 96.958 C 144.972 94.871,144.137 92.941,144.069 92.669 C 143.929 92.109,155.506 86.608,155.917 87.039 C 156.057 87.185,157.005 89.150,158.025 91.406 C 159.044 93.662,159.917 95.558,159.965 95.618 C 160.027 95.697,167.902 92.204,169.041 91.592 C 169.271 91.469,159.084 69.763,158.760 69.685 C 158.561 69.637,156.555 70.454,154.303 71.500 M240.342 71.589 C 239.865 72.713,239.374 73.911,239.251 74.252 C 239.079 74.729,239.901 75.257,242.854 76.566 C 244.958 77.499,246.889 78.451,247.145 78.682 C 247.497 79.000,246.768 81.004,244.130 86.973 C 242.216 91.303,240.601 95.050,240.540 95.300 C 240.448 95.681,248.388 99.609,249.249 99.609 C 249.403 99.609,250.976 96.313,252.746 92.285 C 254.515 88.257,256.204 84.486,256.498 83.905 L 257.032 82.850 261.398 84.780 C 263.800 85.841,265.788 86.668,265.817 86.617 C 266.426 85.542,267.988 81.530,267.851 81.393 C 267.711 81.253,241.321 69.502,241.228 69.538 C 241.219 69.542,240.820 70.464,240.342 71.589 M267.125 94.949 C 262.970 100.109,259.628 104.456,259.699 104.607 C 259.894 105.022,281.295 122.269,281.585 122.244 C 282.145 122.195,285.235 117.868,284.877 117.634 C 283.633 116.821,271.094 106.497,271.094 106.285 C 271.094 106.144,273.571 102.958,276.598 99.205 C 279.625 95.453,282.177 92.262,282.269 92.115 C 282.361 91.968,280.692 90.434,278.559 88.707 L 274.680 85.566 267.125 94.949 M97.064 111.796 C 92.556 117.209,88.566 122.019,88.197 122.485 C 87.533 123.323,87.617 123.407,96.555 130.859 C 101.521 135.000,105.795 138.407,106.053 138.432 C 106.478 138.472,125.173 116.437,124.915 116.200 C 124.854 116.144,123.856 115.314,122.697 114.355 L 120.588 112.612 114.544 119.880 C 107.520 128.326,108.389 127.656,106.524 126.068 L 105.040 124.805 109.897 118.975 L 114.754 113.145 113.182 111.831 C 111.192 110.169,111.723 109.825,106.415 116.211 C 101.107 122.597,101.748 122.170,99.873 120.566 L 98.380 119.287 104.065 112.476 C 107.193 108.729,109.711 105.550,109.661 105.410 C 109.545 105.086,105.748 101.953,105.470 101.953 C 105.355 101.953,101.573 106.382,97.064 111.796 M291.992 116.204 C 286.836 119.926,282.635 123.208,282.656 123.497 C 282.677 123.787,286.427 129.248,290.989 135.633 L 299.283 147.243 301.497 145.630 C 302.715 144.743,303.772 143.969,303.847 143.910 C 303.923 143.851,301.592 140.461,298.669 136.378 C 292.272 127.443,292.564 128.106,294.469 126.846 L 296.003 125.830 296.764 126.685 C 297.182 127.155,298.947 129.561,300.687 132.031 C 302.427 134.502,304.100 136.858,304.405 137.267 C 304.941 137.985,305.021 137.967,306.790 136.751 L 308.620 135.492 307.302 133.664 C 298.924 122.037,299.499 123.218,301.520 121.788 C 303.325 120.513,302.591 119.835,308.592 128.320 C 311.023 131.758,313.146 134.723,313.310 134.910 C 313.475 135.097,314.672 134.504,315.972 133.593 L 318.334 131.936 316.756 129.737 C 315.888 128.528,312.260 123.452,308.695 118.457 C 305.129 113.462,302.022 109.389,301.790 109.406 C 301.557 109.423,297.148 112.482,291.992 116.204 M90.886 141.426 C 83.188 142.882,76.847 144.133,76.794 144.205 C 76.504 144.604,73.438 152.359,73.438 152.696 C 73.438 153.081,88.616 174.678,89.596 175.687 C 89.975 176.077,90.454 175.243,91.916 171.643 L 93.757 167.107 92.341 165.177 L 90.924 163.247 93.810 156.142 C 96.922 148.479,96.701 148.758,100.061 148.244 C 101.477 148.027,101.507 147.983,103.302 143.497 C 104.299 141.006,105.062 138.926,104.999 138.874 C 104.935 138.821,98.584 139.970,90.886 141.426 M209.375 138.942 C 185.071 143.017,173.719 169.138,187.443 189.406 C 188.081 190.348,191.656 194.215,195.388 198.000 C 203.075 205.797,204.067 206.996,205.766 210.547 C 216.922 233.856,190.166 256.697,168.750 242.146 C 165.139 239.693,140.740 214.963,141.340 214.364 C 143.654 212.054,148.399 214.382,155.391 221.258 C 162.021 227.779,163.705 228.448,165.429 225.247 C 166.717 222.855,166.601 222.710,150.168 206.295 C 133.579 189.726,133.444 189.556,135.721 188.064 C 137.049 187.194,136.676 186.886,148.293 198.466 L 158.648 208.789 160.413 208.789 C 162.561 208.789,163.672 207.684,163.672 205.548 C 163.672 204.237,162.906 203.382,151.172 191.596 C 138.425 178.792,137.914 178.151,139.386 176.818 C 141.032 175.329,141.439 175.648,154.337 188.523 C 166.613 200.777,166.724 200.874,168.314 200.852 C 170.252 200.826,170.541 200.665,171.300 199.197 C 172.401 197.069,171.927 196.447,160.300 184.744 C 148.996 173.365,148.770 173.080,149.827 171.571 C 151.094 169.762,151.705 170.224,163.405 181.836 C 176.192 194.527,177.134 195.080,179.233 191.139 C 180.246 189.237,179.906 188.756,171.680 180.469 C 163.161 171.887,162.629 171.087,164.540 169.749 C 165.853 168.829,166.220 168.963,168.750 171.289 C 172.540 174.773,177.159 173.019,175.397 168.765 C 172.866 162.654,163.903 160.630,159.287 165.128 C 157.947 166.433,157.778 166.497,157.139 165.937 C 153.433 162.687,147.337 163.395,144.352 167.423 C 143.236 168.929,143.022 169.038,140.809 169.227 C 138.135 169.455,135.805 170.507,134.375 172.132 C 132.489 174.276,132.230 175.046,132.214 178.552 L 132.199 181.908 130.789 183.146 C 125.467 187.818,126.473 192.191,134.805 200.602 C 141.465 207.325,141.159 206.776,138.859 207.857 C 135.143 209.604,132.564 214.163,133.742 216.904 C 134.738 219.223,163.007 246.870,166.406 248.850 C 184.067 259.136,208.004 250.553,213.435 231.988 C 214.830 227.217,214.935 226.482,214.935 221.484 C 214.935 216.486,214.830 215.751,213.435 210.981 C 212.360 207.307,209.043 202.192,205.049 198.047 C 203.496 196.436,200.011 192.831,197.304 190.036 C 193.531 186.141,192.085 184.345,191.105 182.339 C 179.912 159.412,204.811 136.372,226.758 149.348 C 228.815 150.564,255.469 176.785,255.469 177.593 C 255.469 178.865,251.567 178.831,248.968 177.536 C 247.738 176.923,244.788 174.435,241.092 170.895 C 234.206 164.300,232.810 163.793,231.027 167.241 C 229.939 169.344,230.340 169.829,246.500 185.983 C 262.547 202.022,262.848 202.386,261.328 203.906 C 259.947 205.287,259.378 204.852,248.845 194.357 C 236.897 182.453,235.753 181.734,233.589 184.772 C 231.897 187.149,231.802 187.021,245.344 200.605 C 258.876 214.180,259.206 214.624,256.668 215.882 C 255.163 216.629,254.567 216.125,241.797 203.340 C 228.500 190.026,227.982 189.673,225.810 192.435 C 223.871 194.899,223.948 195.009,236.133 207.169 C 242.256 213.280,247.286 218.517,247.312 218.808 C 247.454 220.433,246.610 221.484,245.162 221.484 C 244.659 221.484,240.389 217.509,233.203 210.352 C 220.817 198.014,220.328 197.684,218.037 200.123 C 215.882 202.416,216.366 203.233,225.049 211.954 C 233.335 220.276,233.976 221.229,232.178 222.546 C 231.086 223.344,229.800 222.838,227.437 220.678 C 225.021 218.469,224.039 218.294,222.296 219.761 C 220.309 221.433,220.577 223.104,223.276 225.891 C 227.862 230.626,233.476 231.118,237.354 227.124 L 238.644 225.796 240.647 227.042 C 244.568 229.478,250.101 228.363,252.566 224.639 C 253.518 223.200,253.642 223.143,256.214 222.959 C 261.751 222.563,265.664 217.610,264.553 212.403 C 264.191 210.704,264.208 210.661,265.737 209.377 C 268.678 206.908,269.776 201.963,268.105 198.706 C 267.705 197.926,264.767 194.648,261.578 191.422 L 255.779 185.557 257.034 184.868 C 261.145 182.613,262.769 180.633,263.151 177.411 L 263.397 175.336 249.179 161.068 C 234.596 146.435,232.571 144.618,228.394 142.416 C 222.745 139.438,214.930 138.010,209.375 138.942 M313.281 142.653 C 310.370 144.635,310.147 147.905,312.352 156.273 C 313.916 162.211,313.857 163.066,311.941 162.193 C 310.115 161.361,308.783 157.415,309.695 155.541 C 309.908 155.102,309.413 153.224,308.210 149.911 L 306.406 144.939 305.192 146.047 C 296.508 153.979,308.579 177.783,318.285 171.865 C 321.109 170.143,321.396 166.393,319.318 158.357 C 317.619 151.783,317.774 150.854,320.229 152.919 C 321.684 154.144,322.493 156.774,321.896 158.343 C 321.536 159.290,321.738 160.178,323.309 164.557 L 325.142 169.666 326.817 167.816 C 334.548 159.277,322.300 136.509,313.281 142.653 M89.844 150.161 C 89.844 150.771,87.224 157.061,86.783 157.509 C 86.499 157.798,81.641 151.850,81.641 151.214 C 81.641 151.020,83.179 150.655,85.059 150.403 C 86.938 150.150,88.652 149.882,88.867 149.807 C 89.633 149.540,89.844 149.617,89.844 150.161 " stroke="none" fill="#f5fafa" fill-rule="evenodd"></path><path id="path1" d="M0.000 200.000 L 0.000 400.000 200.000 400.000 L 400.000 400.000 400.000 200.000 L 400.000 0.000 200.000 0.000 L 0.000 0.000 0.000 200.000 M199.402 67.871 C 201.367 82.244,200.042 85.972,192.033 88.601 C 181.022 92.216,171.831 89.617,169.741 82.298 C 169.177 80.322,167.377 67.232,167.641 67.022 C 167.790 66.902,177.495 65.706,177.618 65.792 C 177.661 65.823,178.073 68.830,178.532 72.475 C 179.748 82.122,180.963 84.077,185.336 83.421 C 190.087 82.709,190.682 81.025,189.510 71.610 C 188.503 63.520,188.040 64.409,193.682 63.621 C 196.190 63.271,198.350 62.964,198.482 62.938 C 198.614 62.912,199.028 65.132,199.402 67.871 M223.399 65.443 C 229.353 66.851,232.834 69.774,233.781 74.160 C 234.030 75.312,233.977 75.444,233.340 75.266 C 232.943 75.155,230.508 74.760,227.930 74.388 C 225.026 73.969,223.123 73.511,222.930 73.184 C 221.961 71.547,217.968 70.883,216.171 72.061 C 214.689 73.032,215.234 73.328,221.341 74.866 C 232.034 77.560,235.095 80.969,231.508 86.188 C 225.988 94.217,204.870 90.549,203.635 81.347 L 203.431 79.826 208.653 80.636 C 212.837 81.284,214.045 81.616,214.729 82.304 C 216.534 84.117,221.100 84.269,221.764 82.538 C 222.092 81.683,221.470 81.427,215.837 80.095 C 206.333 77.849,202.982 74.989,204.792 70.669 C 207.102 65.155,213.999 63.218,223.399 65.443 M163.951 79.989 C 166.576 85.731,168.825 90.708,168.949 91.048 C 169.158 91.622,160.405 96.082,159.954 95.631 C 159.874 95.551,158.929 93.601,157.853 91.298 C 156.777 88.994,155.733 87.109,155.532 87.109 C 155.044 87.109,144.827 91.784,144.365 92.219 C 144.148 92.423,144.812 94.300,146.030 96.925 C 147.145 99.327,148.011 101.334,147.954 101.384 C 147.284 101.986,138.886 105.441,138.671 105.204 C 138.274 104.766,128.505 83.474,128.640 83.339 C 128.699 83.280,130.781 82.276,133.267 81.108 L 137.786 78.985 139.849 83.446 C 141.608 87.251,142.021 87.872,142.657 87.670 C 144.824 86.983,153.334 82.762,153.416 82.335 C 153.469 82.060,152.651 79.990,151.599 77.734 L 149.685 73.633 153.847 71.615 C 156.135 70.505,158.271 69.586,158.594 69.572 C 158.989 69.556,160.734 72.948,163.951 79.989 M254.877 75.439 L 268.284 81.346 267.126 83.925 C 266.490 85.344,265.904 86.570,265.824 86.650 C 265.744 86.730,263.878 85.987,261.678 84.999 C 259.478 84.011,257.488 83.206,257.257 83.209 C 257.025 83.213,255.187 86.980,253.172 91.580 L 249.508 99.945 247.312 98.968 C 246.105 98.431,244.021 97.520,242.680 96.945 C 239.725 95.676,239.555 97.016,243.920 87.167 L 247.605 78.851 244.994 77.677 C 243.558 77.032,241.564 76.151,240.564 75.720 L 238.745 74.935 239.938 72.233 C 240.595 70.747,241.208 69.531,241.301 69.531 C 241.394 69.531,247.503 72.190,254.877 75.439 M278.516 88.510 C 280.557 90.138,282.281 91.619,282.348 91.802 C 282.414 91.984,279.879 95.333,276.715 99.246 C 271.890 105.210,271.056 106.429,271.550 106.793 C 273.649 108.338,285.156 117.777,285.156 117.953 C 285.156 118.307,281.655 122.467,281.422 122.389 C 279.503 121.742,259.406 104.501,259.839 103.872 C 260.845 102.409,274.418 85.592,274.609 85.571 C 274.717 85.560,276.475 86.882,278.516 88.510 M211.719 101.358 C 220.745 102.612,224.233 103.391,231.070 105.678 C 252.936 112.991,271.853 128.598,283.562 148.986 C 285.941 153.127,289.453 160.496,289.453 161.345 C 289.453 161.556,289.623 162.035,289.830 162.408 C 290.535 163.677,292.851 171.200,293.705 175.000 C 295.532 183.122,295.890 186.696,295.878 196.680 C 295.866 206.073,295.713 207.704,294.087 215.820 C 286.970 251.351,259.836 279.785,224.023 289.240 C 214.045 291.875,196.555 292.946,187.695 291.465 C 154.590 285.934,129.482 268.269,115.155 240.430 C 88.357 188.358,114.377 123.969,169.609 105.680 C 176.513 103.394,179.996 102.605,189.258 101.230 C 193.189 100.646,207.170 100.726,211.719 101.358 M107.840 103.577 C 108.899 104.470,109.766 105.357,109.766 105.549 C 109.766 105.821,103.688 113.307,99.257 118.493 C 98.686 119.161,98.733 119.295,99.913 120.349 C 101.650 121.900,101.298 122.141,106.486 115.841 C 111.862 109.313,111.082 109.798,113.226 111.651 L 114.928 113.123 110.721 118.182 C 108.408 120.965,106.246 123.557,105.917 123.942 C 105.368 124.584,105.433 124.756,106.704 126.027 L 108.089 127.412 114.271 119.980 C 119.217 114.033,120.575 112.619,121.066 112.906 C 123.456 114.302,125.179 116.343,124.567 117.054 C 124.227 117.450,119.962 122.564,115.089 128.420 L 106.229 139.066 96.853 131.232 C 90.753 126.135,87.578 123.235,87.764 122.930 C 88.598 121.562,105.208 101.953,105.532 101.953 C 105.742 101.953,106.781 102.684,107.840 103.577 M309.766 119.737 C 313.955 125.632,317.614 130.796,317.898 131.211 C 318.366 131.899,318.216 132.112,316.254 133.562 C 313.401 135.670,314.008 136.087,308.345 128.125 C 302.896 120.465,303.074 120.615,301.242 122.168 L 299.975 123.242 304.284 129.261 C 309.333 136.312,308.960 135.277,306.973 136.716 C 304.798 138.292,305.267 138.640,300.389 131.834 L 296.048 125.777 294.606 126.837 C 293.813 127.421,293.103 127.937,293.028 127.985 C 292.952 128.033,295.283 131.414,298.206 135.497 C 304.742 144.626,304.421 143.666,301.604 145.643 L 299.269 147.280 298.313 146.003 C 295.898 142.780,282.397 123.748,282.317 123.453 C 282.239 123.165,301.429 109.074,301.953 109.034 C 302.061 109.026,305.576 113.842,309.766 119.737 M105.078 138.982 C 105.078 139.810,101.574 147.874,101.114 148.105 C 100.823 148.251,99.732 148.517,98.688 148.697 L 96.790 149.023 93.911 156.220 L 91.032 163.416 92.391 165.074 C 93.138 165.987,93.750 166.876,93.750 167.052 C 93.750 167.885,90.057 176.539,89.814 176.276 C 89.660 176.112,86.420 171.582,82.612 166.211 C 78.805 160.840,75.110 155.652,74.402 154.681 L 73.115 152.917 74.936 148.444 L 76.758 143.971 90.430 141.368 C 105.748 138.450,105.078 138.560,105.078 138.982 M320.117 142.528 C 326.506 145.446,331.448 159.462,328.333 165.829 C 327.286 167.969,325.484 169.811,324.988 169.249 C 323.883 167.997,321.548 159.691,321.751 157.731 C 322.001 155.303,321.313 153.543,319.698 152.485 C 317.900 151.306,317.836 152.233,319.319 157.968 C 322.048 168.524,320.875 172.663,315.156 172.652 C 305.026 172.634,297.466 151.914,305.333 145.726 C 306.615 144.718,306.304 144.271,308.374 150.104 C 309.861 154.297,310.066 155.220,309.726 156.197 C 309.149 157.852,309.893 160.256,311.365 161.495 C 313.805 163.548,313.940 162.851,312.316 156.572 C 309.974 147.511,310.126 144.457,313.012 142.608 C 314.619 141.578,317.956 141.541,320.117 142.528 M84.693 150.535 C 81.285 151.112,81.314 150.940,84.020 154.411 C 86.900 158.104,86.714 158.113,88.259 154.199 C 88.959 152.427,89.620 150.757,89.729 150.488 C 89.971 149.892,88.405 149.906,84.693 150.535 M167.188 304.280 L 167.188 305.436 164.160 305.550 C 159.977 305.708,159.506 307.149,163.574 307.343 C 165.991 307.458,166.016 307.471,166.016 308.612 L 166.016 309.766 163.449 309.766 C 161.012 309.766,160.889 309.810,161.008 310.645 C 161.124 311.458,161.359 311.532,164.160 311.638 L 167.188 311.752 167.188 312.907 L 167.188 314.063 162.500 314.063 L 157.813 314.063 157.813 308.594 L 157.813 303.125 162.500 303.125 L 167.188 303.125 167.188 304.280 M182.495 304.395 C 182.589 305.368,182.822 305.693,183.496 305.789 C 184.845 305.980,184.738 307.813,183.378 307.813 C 181.939 307.813,182.051 311.834,183.496 312.039 C 185.274 312.291,184.653 314.063,182.787 314.063 C 180.054 314.063,179.688 313.646,179.688 310.533 C 179.688 308.375,179.566 307.813,179.102 307.813 C 178.737 307.813,178.516 307.444,178.516 306.836 C 178.516 306.234,178.737 305.859,179.094 305.859 C 179.412 305.859,179.788 305.376,179.929 304.785 C 180.297 303.249,180.409 303.125,181.444 303.125 C 182.206 303.125,182.394 303.353,182.495 304.395 M204.119 304.084 C 205.928 305.893,205.108 308.321,202.044 310.226 L 200.586 311.133 202.930 311.328 C 205.242 311.521,205.275 311.541,205.396 312.793 L 205.518 314.063 201.001 314.063 L 196.484 314.063 196.484 313.012 C 196.484 312.046,200.369 307.813,201.256 307.813 C 201.902 307.812,202.402 306.205,201.932 305.639 C 201.210 304.769,199.635 304.939,199.270 305.928 C 198.823 307.136,196.479 307.268,196.497 306.084 C 196.539 303.329,201.946 301.911,204.119 304.084 M214.121 303.547 C 216.786 304.973,216.573 312.368,213.830 313.618 C 209.947 315.387,207.031 313.146,207.031 308.392 C 207.031 303.982,210.502 301.610,214.121 303.547 M225.604 304.084 C 227.289 305.769,226.586 308.052,223.786 309.987 L 222.128 311.133 224.345 311.250 L 226.563 311.367 226.563 312.715 L 226.563 314.063 222.266 314.063 L 217.969 314.063 217.969 312.920 C 217.969 311.997,218.497 311.309,220.721 309.332 C 222.703 307.571,223.441 306.660,223.358 306.080 C 223.179 304.831,221.374 304.788,220.571 306.013 C 220.133 306.682,219.668 306.938,219.093 306.827 C 217.945 306.606,217.837 306.437,218.122 305.302 C 218.680 303.078,223.769 302.249,225.604 304.084 M236.151 304.084 C 237.960 305.893,237.140 308.321,234.076 310.226 L 232.617 311.133 234.961 311.328 C 237.273 311.521,237.306 311.541,237.427 312.793 L 237.549 314.063 233.033 314.063 L 228.516 314.063 228.516 313.012 C 228.516 312.046,232.401 307.813,233.287 307.813 C 233.933 307.812,234.433 306.205,233.964 305.639 C 233.241 304.769,231.667 304.939,231.301 305.928 C 230.854 307.136,228.510 307.268,228.528 306.084 C 228.570 303.329,233.977 301.911,236.151 304.084 M210.349 305.473 C 209.778 306.396,210.032 310.980,210.689 311.638 C 211.900 312.848,212.679 311.810,212.812 308.811 C 212.950 305.672,211.468 303.663,210.349 305.473 M175.971 306.406 C 177.423 307.357,177.242 308.203,175.586 308.203 C 174.834 308.203,174.219 308.048,174.219 307.858 C 174.219 307.372,172.839 307.067,172.259 307.426 C 171.455 307.923,172.159 308.489,173.921 308.762 C 176.877 309.221,178.124 311.496,176.378 313.243 C 174.807 314.813,168.750 313.710,168.750 311.854 C 168.750 311.118,171.000 311.178,171.756 311.935 C 172.487 312.666,174.023 312.531,174.023 311.736 C 174.023 311.385,173.425 311.048,172.461 310.856 C 169.483 310.261,168.536 309.299,169.039 307.379 C 169.512 305.569,173.780 304.970,175.971 306.406 M189.063 312.500 L 189.063 314.063 187.500 314.063 L 185.938 314.063 185.938 312.500 L 185.938 310.938 187.500 310.938 L 189.063 310.938 189.063 312.500 " stroke="none" fill="#23242c" fill-rule="evenodd"></path><path id="path2" d="M195.696 101.148 C 195.154 101.312,193.141 101.485,191.222 101.531 C 189.302 101.577,187.548 101.731,187.323 101.873 C 187.098 102.014,185.947 102.258,184.766 102.415 C 178.108 103.295,168.298 106.047,163.970 108.249 C 163.597 108.438,163.026 108.594,162.701 108.594 C 162.375 108.594,162.109 108.770,162.109 108.984 C 162.109 109.199,161.874 109.375,161.586 109.375 C 161.085 109.375,155.360 112.205,152.215 114.008 C 139.019 121.570,125.562 135.026,117.910 148.309 C 116.435 150.869,112.500 158.672,112.500 159.037 C 112.500 159.228,112.161 160.129,111.747 161.039 C 110.638 163.478,108.594 169.694,108.594 170.629 C 108.594 171.074,108.437 171.535,108.246 171.653 C 108.055 171.771,107.801 172.441,107.682 173.141 C 107.563 173.841,107.278 175.293,107.049 176.367 C 104.326 189.153,104.320 204.142,107.033 216.211 C 107.275 217.285,107.567 218.824,107.684 219.631 C 107.800 220.438,108.052 221.196,108.244 221.315 C 108.437 221.433,108.594 222.037,108.594 222.656 C 108.594 223.275,108.770 223.891,108.984 224.023 C 109.199 224.156,109.375 224.684,109.375 225.195 C 109.375 225.707,109.551 226.234,109.766 226.367 C 109.980 226.500,110.156 226.952,110.156 227.372 C 110.156 227.792,110.312 228.441,110.501 228.814 C 110.885 229.569,111.670 231.422,112.112 232.617 C 112.435 233.489,113.618 236.156,114.928 238.965 C 115.404 239.985,116.459 241.937,117.272 243.302 C 118.085 244.666,118.750 245.840,118.750 245.911 C 118.750 246.491,125.280 255.501,127.930 258.578 C 129.906 260.872,137.849 268.680,139.369 269.821 C 140.158 270.414,141.316 271.382,141.944 271.973 C 142.571 272.563,143.308 273.047,143.580 273.047 C 143.853 273.047,144.134 273.200,144.206 273.387 C 144.377 273.833,152.309 279.043,153.868 279.733 C 154.534 280.028,155.078 280.402,155.078 280.564 C 155.078 280.727,155.430 280.859,155.859 280.859 C 156.289 280.859,156.642 280.991,156.644 281.152 C 156.647 281.503,158.539 282.422,159.258 282.422 C 159.537 282.422,159.766 282.598,159.766 282.813 C 159.766 283.027,159.996 283.203,160.278 283.203 C 160.560 283.203,161.518 283.555,162.408 283.984 C 163.297 284.414,164.262 284.766,164.551 284.766 C 164.841 284.766,165.245 284.918,165.449 285.104 C 169.571 288.867,198.172 292.974,209.107 291.374 C 210.221 291.211,212.086 290.971,213.250 290.841 C 218.917 290.207,229.011 287.591,235.156 285.163 C 240.790 282.937,247.170 279.737,250.060 277.688 C 250.631 277.284,251.290 276.953,251.525 276.953 C 251.761 276.953,251.953 276.789,251.953 276.589 C 251.953 276.388,252.283 276.120,252.687 275.992 C 253.090 275.864,253.925 275.325,254.542 274.794 C 255.159 274.263,255.884 273.829,256.152 273.829 C 256.421 273.828,256.641 273.690,256.641 273.522 C 256.641 273.353,257.146 272.917,257.764 272.551 C 258.383 272.186,259.481 271.333,260.206 270.656 C 260.931 269.978,262.134 268.965,262.881 268.403 C 264.720 267.021,270.107 261.606,272.260 258.976 C 273.224 257.799,274.103 256.748,274.213 256.641 C 274.324 256.533,275.023 255.654,275.767 254.688 C 276.511 253.721,277.258 252.871,277.427 252.799 C 277.596 252.728,277.735 252.464,277.735 252.214 C 277.735 251.963,278.170 251.253,278.700 250.636 C 279.231 250.019,279.770 249.184,279.898 248.780 C 280.026 248.377,280.295 248.047,280.495 248.047 C 280.695 248.047,280.859 247.816,280.859 247.535 C 280.859 247.253,281.169 246.682,281.547 246.265 C 284.630 242.871,290.748 227.859,293.158 217.773 C 295.176 209.334,296.258 194.238,295.301 187.891 C 295.122 186.709,294.885 184.769,294.773 183.579 C 294.662 182.389,294.484 181.159,294.379 180.845 C 294.274 180.530,294.097 179.570,293.987 178.711 C 293.876 177.852,293.339 175.479,292.793 173.438 C 292.247 171.396,291.734 169.375,291.652 168.945 C 291.571 168.516,291.211 167.373,290.854 166.406 C 290.496 165.439,290.133 164.385,290.047 164.063 C 289.425 161.739,285.050 152.409,282.468 147.903 C 276.816 138.038,263.599 123.615,256.214 119.253 C 255.589 118.884,255.078 118.465,255.078 118.323 C 255.078 118.180,254.551 117.845,253.906 117.578 C 253.262 117.311,252.734 116.950,252.734 116.776 C 252.734 116.602,252.384 116.348,251.955 116.212 C 251.527 116.076,250.950 115.756,250.674 115.502 C 249.978 114.861,248.130 113.775,246.387 112.982 C 245.581 112.616,244.922 112.181,244.922 112.017 C 244.922 111.853,244.570 111.719,244.141 111.719 C 243.711 111.719,243.359 111.543,243.359 111.328 C 243.359 111.113,243.008 110.938,242.578 110.938 C 242.148 110.938,241.797 110.762,241.797 110.547 C 241.797 110.332,241.550 110.156,241.248 110.156 C 240.946 110.156,239.935 109.780,239.002 109.320 C 238.068 108.859,236.953 108.356,236.523 108.200 C 235.389 107.789,233.503 106.993,232.720 106.595 C 232.347 106.405,231.698 106.250,231.278 106.250 C 230.858 106.250,230.419 106.094,230.301 105.904 C 230.184 105.714,229.602 105.465,229.009 105.351 C 228.415 105.236,227.227 104.940,226.367 104.694 C 222.915 103.702,219.015 102.823,215.820 102.316 C 209.869 101.371,197.351 100.645,195.696 101.148 M219.141 139.240 C 228.765 141.107,230.653 142.479,249.179 161.068 L 263.397 175.336 263.151 177.411 C 262.769 180.633,261.145 182.613,257.034 184.868 L 255.779 185.557 261.578 191.422 C 264.767 194.648,267.705 197.926,268.105 198.706 C 269.776 201.963,268.678 206.908,265.737 209.377 C 264.208 210.661,264.191 210.704,264.553 212.403 C 265.664 217.610,261.751 222.563,256.214 222.959 C 253.642 223.143,253.518 223.200,252.566 224.639 C 250.101 228.363,244.568 229.478,240.647 227.042 L 238.644 225.796 237.354 227.124 C 233.476 231.118,227.862 230.626,223.276 225.891 C 220.577 223.104,220.309 221.433,222.296 219.761 C 224.039 218.294,225.021 218.469,227.437 220.678 C 229.800 222.838,231.086 223.344,232.178 222.546 C 233.976 221.229,233.335 220.276,225.049 211.954 C 216.366 203.233,215.882 202.416,218.037 200.123 C 220.328 197.684,220.817 198.014,233.203 210.352 C 240.389 217.509,244.659 221.484,245.162 221.484 C 246.610 221.484,247.454 220.433,247.312 218.808 C 247.286 218.517,242.256 213.280,236.133 207.169 C 223.948 195.009,223.871 194.899,225.810 192.435 C 227.982 189.673,228.500 190.026,241.797 203.340 C 254.567 216.125,255.163 216.629,256.668 215.882 C 259.206 214.624,258.876 214.180,245.344 200.605 C 231.802 187.021,231.897 187.149,233.589 184.772 C 235.753 181.734,236.897 182.453,248.845 194.357 C 259.378 204.852,259.947 205.287,261.328 203.906 C 262.848 202.386,262.547 202.022,246.500 185.983 C 230.340 169.829,229.939 169.344,231.027 167.241 C 232.810 163.793,234.206 164.300,241.092 170.895 C 244.788 174.435,247.738 176.923,248.968 177.536 C 251.567 178.831,255.469 178.865,255.469 177.593 C 255.469 176.785,228.815 150.564,226.758 149.348 C 204.811 136.372,179.912 159.412,191.105 182.339 C 192.085 184.345,193.531 186.141,197.304 190.036 C 200.011 192.831,203.496 196.436,205.049 198.047 C 209.043 202.192,212.360 207.307,213.435 210.981 C 214.830 215.751,214.935 216.486,214.935 221.484 C 214.935 226.482,214.830 227.217,213.435 231.988 C 208.004 250.553,184.067 259.136,166.406 248.850 C 163.007 246.870,134.738 219.223,133.742 216.904 C 132.564 214.163,135.143 209.604,138.859 207.857 C 141.159 206.776,141.465 207.325,134.805 200.602 C 126.473 192.191,125.467 187.818,130.789 183.146 L 132.199 181.908 132.214 178.552 C 132.230 175.046,132.489 174.276,134.375 172.132 C 135.805 170.507,138.135 169.455,140.809 169.227 C 143.022 169.038,143.236 168.929,144.352 167.423 C 147.337 163.395,153.433 162.687,157.139 165.937 C 157.778 166.497,157.947 166.433,159.287 165.128 C 163.903 160.630,172.866 162.654,175.397 168.765 C 177.159 173.019,172.540 174.773,168.750 171.289 C 166.220 168.963,165.853 168.829,164.540 169.749 C 162.629 171.087,163.161 171.887,171.680 180.469 C 179.906 188.756,180.246 189.237,179.233 191.139 C 177.134 195.080,176.192 194.527,163.405 181.836 C 151.705 170.224,151.094 169.762,149.827 171.571 C 148.770 173.080,148.996 173.365,160.300 184.744 C 171.927 196.447,172.401 197.069,171.300 199.197 C 170.541 200.665,170.252 200.826,168.314 200.852 C 166.724 200.874,166.613 200.777,154.337 188.523 C 141.439 175.648,141.032 175.329,139.386 176.818 C 137.914 178.151,138.425 178.792,151.172 191.596 C 162.906 203.382,163.672 204.237,163.672 205.548 C 163.672 207.684,162.561 208.789,160.413 208.789 L 158.648 208.789 148.293 198.466 C 136.676 186.886,137.049 187.194,135.721 188.064 C 133.444 189.556,133.579 189.726,150.168 206.295 C 166.601 222.710,166.717 222.855,165.429 225.247 C 163.705 228.448,162.021 227.779,155.391 221.258 C 148.399 214.382,143.654 212.054,141.340 214.364 C 140.740 214.963,165.139 239.693,168.750 242.146 C 184.510 252.854,205.151 243.795,208.016 224.913 C 209.511 215.058,207.064 209.843,195.388 198.000 C 183.717 186.163,180.666 179.359,181.747 167.578 C 183.431 149.231,201.204 135.762,219.141 139.240 M198.619 303.497 C 197.656 303.887,197.060 304.591,196.701 305.762 C 196.315 307.021,198.083 306.960,199.374 305.668 C 200.139 304.904,200.539 304.767,201.247 305.027 C 202.979 305.664,202.578 306.821,199.876 308.986 C 197.617 310.796,196.484 312.237,196.484 313.300 C 196.484 313.513,198.319 313.672,200.781 313.672 L 205.078 313.672 205.078 312.695 C 205.078 311.785,204.946 311.719,203.148 311.719 C 200.618 311.719,200.393 311.205,202.355 309.907 C 207.262 306.660,204.119 301.267,198.619 303.497 M209.311 303.547 C 206.044 304.809,206.400 312.710,209.769 313.719 C 213.905 314.958,216.529 312.086,215.786 307.132 C 215.303 303.915,212.450 302.335,209.311 303.547 M220.061 303.512 C 219.141 303.884,217.969 305.357,217.969 306.142 C 217.969 307.010,219.846 306.681,220.899 305.628 C 221.818 304.709,221.988 304.667,222.750 305.173 C 224.102 306.071,224.008 306.595,222.225 308.126 C 216.393 313.132,216.397 313.672,222.266 313.672 L 226.563 313.672 226.563 312.695 C 226.563 311.785,226.431 311.719,224.632 311.719 C 222.050 311.719,221.938 311.300,224.056 309.565 C 228.421 305.988,225.372 301.369,220.061 303.512 M230.651 303.497 C 229.687 303.887,229.091 304.591,228.732 305.762 C 228.346 307.021,230.114 306.960,231.405 305.668 C 232.170 304.904,232.570 304.767,233.279 305.027 C 235.010 305.664,234.609 306.821,231.908 308.986 C 229.649 310.796,228.516 312.237,228.516 313.300 C 228.516 313.513,230.350 313.672,232.813 313.672 L 237.109 313.672 237.109 312.695 C 237.109 311.785,236.978 311.719,235.179 311.719 C 232.649 311.719,232.424 311.205,234.387 309.907 C 239.294 306.660,236.151 301.267,230.651 303.497 M157.813 308.594 L 157.813 313.672 162.305 313.672 L 166.797 313.672 166.797 312.712 C 166.797 311.792,166.681 311.748,163.965 311.638 C 161.235 311.528,161.133 311.488,161.133 310.547 C 161.133 309.622,161.261 309.564,163.574 309.454 C 165.860 309.345,166.016 309.278,166.016 308.398 C 166.016 307.519,165.860 307.452,163.574 307.343 C 159.638 307.155,159.953 305.712,163.965 305.549 C 166.681 305.439,166.797 305.395,166.797 304.475 L 166.797 303.516 162.305 303.516 L 157.813 303.516 157.813 308.594 M180.339 303.776 C 180.195 303.919,180.078 304.375,180.078 304.789 C 180.078 305.213,179.737 305.631,179.297 305.746 C 178.384 305.985,178.249 307.236,179.102 307.563 C 179.535 307.730,179.689 308.425,179.693 310.242 C 179.701 313.277,179.946 313.676,181.968 313.947 C 183.919 314.209,184.657 313.240,183.254 312.258 C 182.068 311.427,182.029 307.842,183.203 307.535 C 183.633 307.423,183.984 307.020,183.984 306.641 C 183.984 306.261,183.633 305.859,183.203 305.746 C 182.675 305.608,182.422 305.213,182.422 304.529 C 182.422 303.537,181.067 303.048,180.339 303.776 M213.044 306.934 C 213.802 310.546,211.889 313.692,210.276 311.486 C 209.661 310.646,209.600 306.899,210.183 305.810 C 210.971 304.336,212.636 304.990,213.044 306.934 M170.009 306.467 C 167.941 307.916,169.078 309.966,172.354 310.694 C 173.704 310.993,174.414 311.350,174.414 311.728 C 174.414 312.428,172.356 312.746,171.749 312.140 C 170.932 311.323,168.663 311.607,169.124 312.469 C 170.535 315.105,176.953 314.187,176.953 311.348 C 176.953 309.945,176.463 309.564,173.828 308.922 C 171.636 308.388,171.273 307.959,172.407 307.244 C 172.857 306.960,173.273 306.984,173.821 307.327 C 174.903 308.003,176.563 307.950,176.563 307.240 C 176.563 305.847,171.711 305.275,170.009 306.467 M185.938 312.500 C 185.938 313.607,186.024 313.672,187.500 313.672 C 188.976 313.672,189.063 313.607,189.063 312.500 C 189.063 311.393,188.976 311.328,187.500 311.328 C 186.024 311.328,185.938 311.393,185.938 312.500 " stroke="none" fill="#17c4cc" fill-rule="evenodd"></path><path id="path3" d="M190.234 101.184 C 189.189 101.412,189.557 101.477,191.797 101.456 C 193.408 101.441,195.166 101.301,195.703 101.144 C 197.041 100.754,192.031 100.790,190.234 101.184 M204.688 101.188 C 207.836 101.623,212.628 101.592,210.156 101.152 C 209.189 100.980,207.080 100.851,205.469 100.865 L 202.539 100.891 204.688 101.188 M184.375 101.953 C 183.528 102.224,183.605 102.270,184.961 102.299 C 185.820 102.317,186.787 102.161,187.109 101.953 C 187.843 101.479,185.856 101.479,184.375 101.953 M213.477 101.953 C 213.906 102.138,214.873 102.284,215.625 102.277 C 216.868 102.267,216.903 102.237,216.016 101.953 C 214.598 101.499,212.420 101.499,213.477 101.953 M180.078 102.734 C 179.183 103.021,179.216 103.050,180.469 103.080 C 181.221 103.098,182.100 102.943,182.422 102.734 C 183.158 102.258,181.564 102.258,180.078 102.734 M218.359 102.734 C 218.682 102.943,219.473 103.103,220.117 103.092 C 221.123 103.073,221.179 103.023,220.508 102.734 C 219.359 102.241,217.595 102.241,218.359 102.734 M175.391 103.922 C 173.338 104.638,173.842 104.643,177.066 103.938 C 177.880 103.760,178.657 103.505,178.792 103.370 C 179.265 102.897,177.517 103.180,175.391 103.922 M221.599 103.370 C 221.734 103.505,222.510 103.757,223.324 103.930 C 224.139 104.103,225.508 104.445,226.367 104.689 C 228.886 105.404,229.900 105.594,229.629 105.301 C 229.336 104.983,222.743 103.125,221.910 103.125 C 221.604 103.125,221.464 103.235,221.599 103.370 M169.214 105.736 C 167.643 106.278,166.438 106.802,166.536 106.900 C 166.709 107.073,172.677 105.187,173.011 104.854 C 173.403 104.462,171.874 104.817,169.214 105.736 M230.273 105.859 C 230.406 106.074,230.900 106.247,231.371 106.244 C 232.067 106.239,232.117 106.167,231.641 105.859 C 230.871 105.362,229.966 105.362,230.273 105.859 M232.617 106.641 C 232.750 106.855,233.114 107.031,233.427 107.031 C 233.739 107.031,234.300 107.187,234.673 107.376 C 235.046 107.566,235.791 107.893,236.328 108.102 C 236.865 108.311,238.068 108.859,239.002 109.320 C 239.935 109.780,240.946 110.156,241.248 110.156 C 241.550 110.156,241.797 110.332,241.797 110.547 C 241.797 110.762,242.148 110.938,242.578 110.938 C 243.008 110.938,243.359 111.113,243.359 111.328 C 243.359 111.543,243.711 111.719,244.141 111.719 C 244.570 111.719,244.922 111.853,244.922 112.017 C 244.922 112.181,245.581 112.616,246.387 112.982 C 248.130 113.775,249.978 114.861,250.674 115.502 C 250.950 115.756,251.527 116.076,251.955 116.212 C 252.384 116.348,252.734 116.602,252.734 116.776 C 252.734 116.950,253.262 117.311,253.906 117.578 C 254.551 117.845,255.078 118.180,255.078 118.323 C 255.078 118.465,255.589 118.884,256.214 119.253 C 262.317 122.858,273.666 134.582,279.599 143.411 C 282.795 148.168,286.254 154.625,288.123 159.324 C 289.486 162.751,290.198 164.071,290.219 163.207 C 290.227 162.843,290.059 162.437,289.844 162.305 C 289.629 162.172,289.453 161.815,289.453 161.512 C 289.453 160.509,286.165 153.518,283.562 148.986 C 272.661 130.007,256.699 116.103,235.786 107.373 C 232.916 106.175,232.232 106.017,232.617 106.641 M163.867 107.791 C 163.008 108.198,162.602 108.545,162.965 108.562 C 163.329 108.580,163.734 108.418,163.867 108.203 C 164.000 107.988,164.439 107.813,164.844 107.813 C 165.248 107.813,165.688 107.637,165.820 107.422 C 166.172 106.854,165.633 106.955,163.867 107.791 M155.968 111.512 C 137.340 121.255,122.694 136.348,113.927 154.834 C 111.772 159.378,112.467 158.885,114.800 154.215 C 122.359 139.086,133.390 126.482,147.137 117.266 C 152.253 113.837,160.423 109.375,161.586 109.375 C 161.874 109.375,162.109 109.199,162.109 108.984 C 162.109 108.341,161.749 108.489,155.968 111.512 M111.580 160.130 C 111.208 161.057,110.990 161.901,111.094 162.005 C 111.353 162.264,112.551 159.332,112.386 158.839 C 112.314 158.621,111.951 159.202,111.580 160.130 M109.570 165.625 C 108.989 167.371,108.594 168.881,108.694 168.980 C 108.793 169.079,109.347 167.729,109.925 165.980 C 110.504 164.231,110.898 162.721,110.802 162.625 C 110.706 162.529,110.152 163.879,109.570 165.625 M290.306 165.041 C 290.551 165.579,290.827 165.944,290.919 165.851 C 291.195 165.576,290.601 164.063,290.216 164.063 C 290.021 164.063,290.061 164.503,290.306 165.041 M291.028 166.797 C 291.028 167.119,291.198 167.646,291.406 167.969 C 291.743 168.490,291.785 168.490,291.785 167.969 C 291.785 167.646,291.615 167.119,291.406 166.797 C 291.070 166.276,291.028 166.276,291.028 166.797 M291.725 168.952 C 291.586 169.091,291.702 169.761,291.983 170.442 C 292.264 171.123,292.805 173.086,293.185 174.805 C 293.565 176.523,293.955 177.697,294.051 177.412 C 294.212 176.934,294.010 175.925,292.903 171.680 C 292.292 169.339,292.005 168.672,291.725 168.952 M107.711 171.705 C 106.928 174.434,106.818 175.544,107.422 174.609 C 107.630 174.287,107.803 173.575,107.807 173.027 C 107.810 172.479,108.003 171.841,108.236 171.608 C 108.469 171.375,108.599 170.768,108.525 170.260 C 108.429 169.602,108.195 170.018,107.711 171.705 M106.464 176.882 C 106.304 177.809,106.266 178.662,106.381 178.777 C 106.666 179.062,107.155 176.341,106.933 175.705 C 106.836 175.424,106.625 175.954,106.464 176.882 M294.228 180.176 C 294.433 181.304,294.673 182.300,294.761 182.389 C 295.005 182.637,294.953 180.723,294.678 179.346 C 294.257 177.242,293.837 178.018,294.228 180.176 M105.762 180.420 C 105.601 181.145,105.480 182.200,105.494 182.764 L 105.518 183.789 105.903 182.826 C 106.114 182.296,106.235 181.242,106.171 180.482 L 106.055 179.102 105.762 180.420 M294.887 183.008 C 294.772 183.223,294.883 184.805,295.135 186.523 C 295.547 189.332,295.597 189.451,295.626 187.695 C 295.663 185.423,295.193 182.439,294.887 183.008 M104.984 186.328 C 104.825 187.510,104.714 189.531,104.739 190.820 L 104.783 193.164 105.133 190.820 C 105.326 189.531,105.436 187.510,105.379 186.328 L 105.273 184.180 104.984 186.328 M295.772 190.625 C 295.507 191.127,295.545 202.658,295.812 202.392 C 295.979 202.224,296.062 199.465,295.996 196.259 C 295.930 193.053,295.829 190.518,295.772 190.625 M104.771 202.344 C 104.763 203.740,104.893 205.762,105.060 206.836 L 105.364 208.789 105.388 206.055 C 105.400 204.551,105.270 202.529,105.098 201.563 C 104.791 199.838,104.785 199.852,104.771 202.344 M294.986 207.031 C 294.080 214.164,294.032 214.653,294.262 214.443 C 294.675 214.065,295.752 206.319,295.629 204.612 C 295.538 203.345,295.379 203.943,294.986 207.031 M105.542 210.156 C 105.575 212.497,106.153 214.280,106.176 212.109 C 106.187 211.143,106.044 210.000,105.859 209.570 C 105.589 208.942,105.527 209.057,105.542 210.156 M106.256 214.503 C 106.242 215.956,107.606 220.888,107.733 219.844 C 107.803 219.263,107.674 218.440,107.446 218.014 C 107.218 217.588,107.029 216.744,107.025 216.139 C 107.022 215.534,106.849 214.775,106.641 214.453 C 106.311 213.943,106.261 213.950,106.256 214.503 M293.386 216.992 C 291.796 224.375,288.546 233.214,284.627 240.811 C 282.333 245.259,282.150 245.674,282.733 245.117 C 283.458 244.424,287.718 235.852,289.236 232.031 C 291.749 225.707,294.346 216.659,294.038 215.301 C 293.957 214.942,293.663 215.703,293.386 216.992 M107.840 221.559 C 107.906 222.797,108.537 223.685,108.566 222.582 C 108.581 222.004,108.418 221.422,108.203 221.289 C 107.988 221.156,107.825 221.278,107.840 221.559 M108.763 224.844 C 111.744 236.757,121.616 253.124,132.422 264.069 C 137.359 269.070,150.603 279.261,152.222 279.306 C 152.396 279.310,152.979 279.658,153.516 280.078 C 154.549 280.886,155.078 281.051,155.078 280.564 C 155.078 280.402,154.534 280.028,153.868 279.733 C 152.309 279.043,144.377 273.833,144.206 273.387 C 144.134 273.200,143.853 273.047,143.580 273.047 C 143.308 273.047,142.571 272.563,141.944 271.973 C 141.316 271.382,140.158 270.414,139.369 269.821 C 137.849 268.680,129.906 260.872,127.930 258.578 C 125.280 255.501,118.750 246.491,118.750 245.911 C 118.750 245.840,118.085 244.666,117.272 243.302 C 115.352 240.079,113.268 235.651,111.230 230.469 C 111.019 229.932,110.691 229.187,110.501 228.814 C 110.312 228.441,110.156 227.792,110.156 227.372 C 110.156 226.952,109.980 226.500,109.766 226.367 C 109.551 226.234,109.375 225.707,109.375 225.195 C 109.375 224.684,109.174 224.140,108.927 223.988 C 108.608 223.791,108.561 224.036,108.763 224.844 M281.218 246.777 C 280.913 247.368,280.444 248.084,280.176 248.368 C 279.907 248.652,279.688 249.020,279.688 249.186 C 279.688 249.352,279.248 249.999,278.711 250.623 C 277.803 251.679,277.494 252.344,277.910 252.344 C 278.132 252.344,281.384 247.755,281.993 246.582 C 282.244 246.099,282.297 245.703,282.111 245.703 C 281.925 245.703,281.523 246.187,281.218 246.777 M275.784 254.602 C 275.033 255.616,274.328 256.533,274.216 256.641 C 274.104 256.748,273.224 257.802,272.260 258.983 C 271.296 260.164,269.302 262.328,267.829 263.791 C 266.355 265.255,265.230 266.532,265.327 266.629 C 265.591 266.893,271.709 260.421,274.585 256.836 C 277.913 252.687,277.881 252.733,277.489 252.746 C 277.302 252.753,276.534 253.588,275.784 254.602 M262.296 268.841 C 260.179 270.562,259.642 271.101,259.845 271.303 C 259.940 271.398,260.971 270.607,262.138 269.545 C 264.540 267.356,264.634 266.941,262.296 268.841 M257.915 272.388 C 257.220 272.858,256.649 273.386,256.646 273.562 C 256.640 273.914,258.823 272.451,259.191 271.857 C 259.506 271.347,259.372 271.403,257.915 272.388 M254.542 274.794 C 253.925 275.325,253.090 275.864,252.687 275.992 C 252.283 276.120,251.953 276.388,251.953 276.589 C 251.953 276.789,251.761 276.953,251.525 276.953 C 251.290 276.953,250.631 277.284,250.060 277.688 C 247.170 279.737,240.790 282.937,235.156 285.163 C 228.913 287.630,218.652 290.273,212.957 290.881 C 211.739 291.012,209.951 291.250,208.984 291.412 L 207.227 291.705 208.940 291.751 C 216.487 291.953,233.590 287.050,243.945 281.715 C 249.873 278.660,257.222 273.883,256.055 273.843 C 255.840 273.835,255.159 274.263,254.542 274.794 M162.500 284.456 C 169.778 287.855,185.917 291.893,191.647 291.749 C 193.529 291.701,193.520 291.696,191.016 291.366 C 180.872 290.027,167.165 286.671,165.449 285.104 C 165.245 284.918,164.841 284.766,164.551 284.766 C 164.262 284.766,163.297 284.414,162.408 283.984 C 161.518 283.555,160.604 283.218,160.376 283.237 C 160.148 283.255,161.104 283.804,162.500 284.456 M194.276 291.889 C 194.524 292.046,197.275 292.176,200.391 292.176 C 203.506 292.176,206.258 292.046,206.506 291.889 C 206.754 291.731,204.003 291.602,200.392 291.602 C 196.781 291.602,194.029 291.731,194.276 291.889 M162.182 303.416 L 166.747 303.540 166.909 304.602 C 167.057 305.576,167.075 305.558,167.129 304.395 L 167.188 303.125 162.402 303.209 L 157.617 303.293 162.182 303.416 M180.317 303.445 C 180.208 303.621,180.637 303.689,181.271 303.596 C 181.904 303.503,182.422 303.359,182.422 303.276 C 182.422 302.978,180.511 303.132,180.317 303.445 M172.173 305.745 C 172.658 305.838,173.362 305.835,173.735 305.737 C 174.108 305.639,173.711 305.563,172.852 305.567 C 171.992 305.572,171.687 305.652,172.173 305.745 M183.984 306.612 C 183.984 307.026,183.677 307.445,183.301 307.543 C 182.786 307.678,182.835 307.733,183.496 307.767 C 184.185 307.803,184.375 307.602,184.375 306.836 C 184.375 306.299,184.287 305.859,184.180 305.859 C 184.072 305.859,183.984 306.198,183.984 306.612 M176.563 307.397 C 176.563 307.598,175.991 307.834,175.293 307.921 C 174.043 308.076,174.046 308.079,175.488 308.141 C 176.558 308.186,176.953 308.045,176.953 307.617 C 176.953 307.295,176.865 307.031,176.758 307.031 C 176.650 307.031,176.563 307.196,176.563 307.397 M212.997 308.594 C 212.997 309.561,213.073 309.956,213.166 309.473 C 213.259 308.989,213.259 308.198,213.166 307.715 C 213.073 307.231,212.997 307.627,212.997 308.594 M162.402 309.658 C 163.101 309.744,164.243 309.744,164.941 309.658 C 165.640 309.571,165.068 309.500,163.672 309.500 C 162.275 309.500,161.704 309.571,162.402 309.658 M186.621 311.213 C 187.104 311.306,187.896 311.306,188.379 311.213 C 188.862 311.120,188.467 311.044,187.500 311.044 C 186.533 311.044,186.138 311.120,186.621 311.213 M169.438 311.604 C 169.924 311.698,170.627 311.694,171.001 311.597 C 171.374 311.499,170.977 311.422,170.117 311.427 C 169.258 311.431,168.952 311.511,169.438 311.604 M203.027 311.604 C 204.892 311.746,205.078 311.845,205.078 312.703 C 205.078 313.637,205.035 313.648,200.684 313.771 L 196.289 313.896 200.904 313.979 L 205.518 314.063 205.396 312.793 C 205.275 311.535,205.254 311.523,203.125 311.486 L 200.977 311.449 203.027 311.604 M223.535 311.608 C 224.126 311.697,225.093 311.697,225.684 311.608 C 226.274 311.518,225.791 311.445,224.609 311.445 C 223.428 311.445,222.944 311.518,223.535 311.608 M235.059 311.604 C 236.924 311.746,237.109 311.845,237.109 312.703 C 237.109 313.637,237.066 313.648,232.715 313.771 L 228.320 313.896 232.935 313.979 L 237.549 314.063 237.427 312.793 C 237.306 311.535,237.286 311.523,235.156 311.486 L 233.008 311.449 235.059 311.604 M166.797 312.683 C 166.797 313.646,166.793 313.647,162.207 313.771 L 157.617 313.895 162.402 313.979 L 167.188 314.063 167.188 312.891 C 167.188 312.246,167.100 311.719,166.992 311.719 C 166.885 311.719,166.797 312.153,166.797 312.683 M183.553 312.467 C 183.853 312.656,183.990 313.093,183.858 313.437 C 183.726 313.781,183.789 314.063,183.997 314.063 C 184.205 314.063,184.375 313.623,184.375 313.086 C 184.375 312.414,184.162 312.111,183.691 312.115 C 183.144 312.120,183.117 312.190,183.553 312.467 M186.621 313.948 C 187.104 314.041,187.896 314.041,188.379 313.948 C 188.862 313.854,188.467 313.778,187.500 313.778 C 186.533 313.778,186.138 313.854,186.621 313.948 M220.020 313.961 C 221.255 314.038,223.276 314.038,224.512 313.961 C 225.747 313.883,224.736 313.820,222.266 313.820 C 219.795 313.820,218.784 313.883,220.020 313.961 " stroke="none" fill="#14949c" fill-rule="evenodd"></path><path id="path4" d="M307.422 168.872 C 307.422 168.939,307.993 169.511,308.691 170.142 L 309.961 171.289 308.814 170.020 C 307.744 168.836,307.422 168.570,307.422 168.872 " stroke="none" fill="#6f6f73" fill-rule="evenodd"></path></g></svg>