<?xml version="1.0" standalone="yes"?>
<svg xmlns="http://www.w3.org/2000/svg" width="500" height="500">
<path style="fill:#010101; stroke:none;" d="M0 0L0 500L500 500L500 0L0 0z"/>
<path style="fill:#2b6a6c; stroke:none;" d="M243 79L244 80L243 79z"/>
<path style="fill:#aeaeae; stroke:none;" d="M244 79L245 80L244 79z"/>
<path style="fill:#f9fdfe; stroke:none;" d="M209 84C210.805 91.5621 209.48 101.427 214.8 107.671C221.972 116.087 243.825 113.96 248.972 103.985C252.518 97.113 249.152 86.3506 249 79C245.85 79.2486 238.117 78.9172 236.643 82.3179C234.069 88.2559 242.757 101.794 231.985 103.623C221.156 105.463 225.596 89.3546 221.821 84.6034C219.318 81.4536 212.208 83.0518 209 84z"/>
<path style="fill:#aeaeae; stroke:none;" d="M236 80L237 81L236 80M264 81L265 82L264 81z"/>
<path style="fill:#f9fdfe; stroke:none;" d="M277 102L277 104L254 100C257.459 111.638 275.489 117.258 285.956 110.91C292.569 106.9 291.852 99.1618 284.995 96.1088C279.915 93.8466 274.222 92.9464 269 91L292 94C290.572 81.1772 268.78 76.6924 259.225 83.8434C250.782 90.1613 259.413 97.281 266 99.2785C269.612 100.374 273.306 101.237 277 102z"/>
<path style="fill:#aeaeae; stroke:none;" d="M276 81L277 82L276 81z"/>
<path style="fill:#2b6a6c; stroke:none;" d="M277 81L278 82L277 81M220 82L221 83L220 82z"/>
<path style="fill:#aeaeae; stroke:none;" d="M221 82L222 83L221 82M261 82L262 83L261 82M209 83L210 84L209 83M222 84L223 85L222 84z"/>
<path style="fill:#2b6a6c; stroke:none;" d="M249 84L250 85L249 84z"/>
<path style="fill:#aeaeae; stroke:none;" d="M209.333 85.6667L209.667 86.3333L209.333 85.6667M249 85L250 86L249 85M236 86L237 87L236 86M196 87L197 88L196 87z"/>
<path style="fill:#f9fdfe; stroke:none;" d="M187 92L192 104L177 110L172 99L161 104L173 132L185 127L180 115L195 108L200 120L211 115L199 87L187 92z"/>
<path style="fill:#2b6a6c; stroke:none;" d="M209 87L210 88L209 87M236 87L237 88L236 87z"/>
<path style="fill:#f9fdfe; stroke:none;" d="M301 87L299 94L310 98L300 120L312 125C313.809 120.338 317.121 107.152 322.214 105.417C325.236 104.388 329.988 107.285 333 108L335 102L301 87z"/>
<path style="fill:#aeaeae; stroke:none;" d="M303 87L304 88L303 87M255 89L256 90L255 89z"/>
<path style="fill:#2b6a6c; stroke:none;" d="M275 89L276 90L275 89z"/>
<path style="fill:#aeaeae; stroke:none;" d="M291 89L292 90L291 89z"/>
<path style="fill:#2b6a6c; stroke:none;" d="M189 90L190 91L189 90z"/>
<path style="fill:#aeaeae; stroke:none;" d="M269 90L270 91L269 90z"/>
<path style="fill:#2b6a6c; stroke:none;" d="M277 90L278 91L277 90M310 90L311 91L310 90M187 91L188 92L187 91M223 91L224 92L223 91z"/>
<path style="fill:#aeaeae; stroke:none;" d="M255 91L256 92L255 91z"/>
<path style="fill:#2b6a6c; stroke:none;" d="M278 91L279 92L278 91z"/>
<path style="fill:#aeaeae; stroke:none;" d="M201 92L202 93L201 92M223 92L224 93L223 92z"/>
<path style="fill:#2b6a6c; stroke:none;" d="M255 92L256 93L255 92M272 92L273 93L272 92M281 92L282 93L281 92z"/>
<path style="fill:#aeaeae; stroke:none;" d="M282 92L283 93L282 92z"/>
<path style="fill:#2b6a6c; stroke:none;" d="M314 92L315 93L314 92M187 93L188 94L187 93z"/>
<path style="fill:#aeaeae; stroke:none;" d="M210 93L211 94L210 93M276 93L277 94L276 93z"/>
<path style="fill:#2b6a6c; stroke:none;" d="M287 93L288 94L287 93z"/>
<path style="fill:#aeaeae; stroke:none;" d="M288 93L289 94L288 93M298 93L299 94L298 93M316 93L317 94L316 93M202 94L203 95L202 94z"/>
<path style="fill:#2b6a6c; stroke:none;" d="M210 94L211 95L210 94z"/>
<path style="fill:#aeaeae; stroke:none;" d="M237 94L238 95L237 94M280 94L281 95L280 94M300 94L301 95L300 94M188 95L189 96L188 95z"/>
<path style="fill:#2b6a6c; stroke:none;" d="M237 95L238 96L237 95M257 95L258 96L257 95z"/>
<path style="fill:#aeaeae; stroke:none;" d="M283 95L284 96L283 95M302 95L303 96L302 95z"/>
<path style="fill:#2b6a6c; stroke:none;" d="M203 96L204 97L203 96M250.333 96.6667L250.667 97.3333L250.333 96.6667M304 96L305 97L304 96z"/>
<path style="fill:#aeaeae; stroke:none;" d="M323 96L324 97L323 96M189 97L190 98L189 97z"/>
<path style="fill:#2b6a6c; stroke:none;" d="M260 97L261 98L260 97M204 98L205 99L204 98M224 98L225 99L224 98z"/>
<path style="fill:#aeaeae; stroke:none;" d="M263 98L264 99L263 98M309 98L310 99L309 98z"/>
<path style="fill:#2b6a6c; stroke:none;" d="M170 99L171 100L170 99M172 99L173 100L172 99z"/>
<path style="fill:#aeaeae; stroke:none;" d="M224 99L225 100L224 99z"/>
<path style="fill:#2b6a6c; stroke:none;" d="M237 99L238 100L237 99z"/>
<path style="fill:#aeaeae; stroke:none;" d="M266 99L267 100L266 99z"/>
<path style="fill:#2b6a6c; stroke:none;" d="M330 99L331 100L330 99M168 100L169 101L168 100z"/>
<path style="fill:#aeaeae; stroke:none;" d="M257 100L258 101L257 100z"/>
<path style="fill:#2b6a6c; stroke:none;" d="M258 100L259 101L258 100z"/>
<path style="fill:#aeaeae; stroke:none;" d="M270 100L271 101L270 100M332 100L333 101L332 100z"/>
<path style="fill:#2b6a6c; stroke:none;" d="M166 101L167 102L166 101M211 101L212 102L211 101M225 101L226 102L225 101z"/>
<path style="fill:#aeaeae; stroke:none;" d="M264 101L265 102L264 101z"/>
<path style="fill:#2b6a6c; stroke:none;" d="M265 101L266 102L265 101z"/>
<path style="fill:#aeaeae; stroke:none;" d="M274 101L275 102L274 101M308 101L309 102L308 101z"/>
<path style="fill:#2b6a6c; stroke:none;" d="M334 101L335 102L334 101M164 102L165 103L164 102z"/>
<path style="fill:#aeaeae; stroke:none;" d="M254 102L255 103L254 102z"/>
<path style="fill:#2b6a6c; stroke:none;" d="M291.333 102.667L291.667 103.333L291.333 102.667z"/>
<path style="fill:#aeaeae; stroke:none;" d="M162 103L163 104L162 103M307 103L308 104L307 103z"/>
<path style="fill:#2b6a6c; stroke:none;" d="M334 103L335 104L334 103M188 104L189 105L188 104z"/>
<path style="fill:#aeaeae; stroke:none;" d="M255 104L256 105L255 104M271.667 104.333L272.333 104.667L271.667 104.333z"/>
<path style="fill:#2b6a6c; stroke:none;" d="M273 104L274 105L273 104z"/>
<path style="fill:#aeaeae; stroke:none;" d="M274 104L275 105L274 104z"/>
<path style="fill:#2b6a6c; stroke:none;" d="M323 104L324 105L323 104z"/>
<path style="fill:#aeaeae; stroke:none;" d="M161 105L162 106L161 105z"/>
<path style="fill:#2b6a6c; stroke:none;" d="M175 105L176 106L175 105z"/>
<path style="fill:#aeaeae; stroke:none;" d="M306 105L307 106L306 105z"/>
<path style="fill:#2b6a6c; stroke:none;" d="M247 106L248 107L247 106M290 106L291 107L290 106M182 107L183 108L182 107z"/>
<path style="fill:#aeaeae; stroke:none;" d="M214 107L215 108L214 107z"/>
<path style="fill:#2b6a6c; stroke:none;" d="M305 107L306 108L305 107M319 107L320 108L319 107z"/>
<path style="fill:#aeaeae; stroke:none;" d="M330 107L331 108L330 107z"/>
<path style="fill:#2b6a6c; stroke:none;" d="M342 107L343 108L342 107z"/>
<path style="fill:#f9fdfe; stroke:none;" d="M324 131L353 153L356 146L339 134C342.005 128.117 350.538 122.466 351.744 116.039C352.509 111.962 345.735 107.065 342.09 108.832C335.492 112.03 327.844 124.854 324 131z"/>
<path style="fill:#aeaeae; stroke:none;" d="M344 107L345 108L344 107z"/>
<path style="fill:#2b6a6c; stroke:none;" d="M180 108L181 109L180 108z"/>
<path style="fill:#aeaeae; stroke:none;" d="M194 108L195 109L194 108M178 109L179 110L178 109z"/>
<path style="fill:#2b6a6c; stroke:none;" d="M192 109L193 110L192 109z"/>
<path style="fill:#aeaeae; stroke:none;" d="M216 109L217 110L216 109z"/>
<path style="fill:#2b6a6c; stroke:none;" d="M260 109L261 110L260 109M304 109L305 110L304 109z"/>
<path style="fill:#aeaeae; stroke:none;" d="M318 109L319 110L318 109z"/>
<path style="fill:#2b6a6c; stroke:none;" d="M195 110L196 111L195 110z"/>
<path style="fill:#aeaeae; stroke:none;" d="M209 110L210 111L209 110M240 110L241 111L240 110M262 110L263 111L262 110z"/>
<path style="fill:#2b6a6c; stroke:none;" d="M237 111L238 112L237 111z"/>
<path style="fill:#aeaeae; stroke:none;" d="M265 111L266 112L265 111z"/>
<path style="fill:#2b6a6c; stroke:none;" d="M285 111L286 112L285 111M349 111L350 112L349 111M196 112L197 113L196 112z"/>
<path style="fill:#aeaeae; stroke:none;" d="M210 112L211 113L210 112z"/>
<path style="fill:#2b6a6c; stroke:none;" d="M223 112L224 113L223 112z"/>
<path style="fill:#aeaeae; stroke:none;" d="M224 112L225 113L224 112M230 112L231 113L230 112z"/>
<path style="fill:#2b6a6c; stroke:none;" d="M231 112L232 113L231 112z"/>
<path style="fill:#aeaeae; stroke:none;" d="M269 112L270 113L269 112M282 112L283 113L282 112z"/>
<path style="fill:#2b6a6c; stroke:none;" d="M338 112L339 113L338 112M165 114L166 115L165 114z"/>
<path style="fill:#aeaeae; stroke:none;" d="M197 114L198 115L197 114M302 114L303 115L302 114z"/>
<path style="fill:#2b6a6c; stroke:none;" d="M209 115L210 116L209 115z"/>
<path style="fill:#aeaeae; stroke:none;" d="M166 116L167 117L166 116M180 116L181 117L180 116M207 116L208 117L207 116z"/>
<path style="fill:#2b6a6c; stroke:none;" d="M301 116L302 117L301 116M315 116L316 117L315 116M205 117L206 118L205 117z"/>
<path style="fill:#aeaeae; stroke:none;" d="M334 117L335 118L334 117z"/>
<path style="fill:#2b6a6c; stroke:none;" d="M351 117L352 118L351 117M181 118L182 119L181 118z"/>
<path style="fill:#aeaeae; stroke:none;" d="M314 118L315 119L314 118M350 118L351 119L350 118M301 120L302 121L301 120z"/>
<path style="fill:#2b6a6c; stroke:none;" d="M332 120L333 121L332 120M303 121L304 122L303 121z"/>
<path style="fill:#aeaeae; stroke:none;" d="M308 123L309 124L308 123z"/>
<path style="fill:#2b6a6c; stroke:none;" d="M312 123L313 124L312 123z"/>
<path style="fill:#aeaeae; stroke:none;" d="M346 123L347 124L346 123z"/>
<path style="fill:#2b6a6c; stroke:none;" d="M310 124L311 125L310 124M184 145L184 146C194.543 141.63 203.908 134.794 215 131.439C254.436 119.511 286.197 130.477 321 149C314.052 140.835 300.91 135.687 291 132.053C255.488 119.033 215.467 124.244 184 145z"/>
<path style="fill:#aeaeae; stroke:none;" d="M344 125L345 126L344 125z"/>
<path style="fill:#1ac6cc; stroke:none;" d="M240 126.424C218.163 129.3 198.348 135.873 180 148.464C129.7 182.98 116.786 256.81 148.118 308C173.339 349.205 221.695 370.425 269 363.715C285.164 361.422 301.497 355.041 315 345.999C351.141 321.798 372.913 280.807 369.91 237C365.553 173.436 304.929 117.874 240 126.424z"/>
<path style="fill:#f9fdfe; stroke:none;" d="M131 127C126.132 133.46 121.161 139.9 115.846 146C114.008 148.109 110.725 150.829 111.037 153.961C111.679 160.405 126.451 168.647 131 173C121.771 175.388 103.833 174.822 96.4985 180.857C84.8723 190.424 105.128 213.591 113 220L119.708 190.059L127.006 183.687L156 146L156 145C145.697 137.088 144.141 153.996 135.908 156.793C130.078 158.774 138.428 147.83 139.151 147.005C140.878 145.034 142.498 143.141 144 141L140 138L139 138L127 152C121.613 142.477 144.55 134.292 131 127z"/>
<path style="fill:#aeaeae; stroke:none;" d="M132 127L133 128L132 127M326 127L327 128L326 127M129 129L130 130L129 129M178 129L179 130L178 129z"/>
<path style="fill:#2b6a6c; stroke:none;" d="M341 129L342 130L341 129M128 130L129 131L128 130z"/>
<path style="fill:#aeaeae; stroke:none;" d="M176 130L177 131L176 130M340 130L341 131L340 130z"/>
<path style="fill:#2b6a6c; stroke:none;" d="M174 131L175 132L174 131z"/>
<path style="fill:#aeaeae; stroke:none;" d="M326 132L327 133L326 132z"/>
<path style="fill:#2b6a6c; stroke:none;" d="M327 133L328 134L327 133z"/>
<path style="fill:#aeaeae; stroke:none;" d="M339 133L340 134L339 133M134 135L135 136L134 135M331 136L332 137L331 136M377 136L378 137L377 136z"/>
<path style="fill:#2b6a6c; stroke:none;" d="M332 137L333 138L332 137M344 137L345 138L344 137z"/>
<path style="fill:#aeaeae; stroke:none;" d="M375 137L376 138L375 137z"/>
<path style="fill:#f9fdfe; stroke:none;" d="M374 184L375 184L380 180L380 179L366 161L366 160L371 157L380 172C389.538 169.093 377.559 158.144 375 153C382.395 151.297 387.717 164.049 392 169C401.524 163.027 389.532 152.107 384.793 146C382.984 143.668 380.777 139.298 377.816 138.306C374.022 137.036 368.869 142.396 366 144.33C362.546 146.659 355.608 149.666 354.447 154.04C353.607 157.204 356.746 160.64 358.427 163C363.47 170.077 368.602 177.193 374 184z"/>
<path style="fill:#aeaeae; stroke:none;" d="M122 138L123 139L122 138z"/>
<path style="fill:#2b6a6c; stroke:none;" d="M138 138L139 139L138 138z"/>
<path style="fill:#aeaeae; stroke:none;" d="M333 138L334 139L333 138z"/>
<path style="fill:#2b6a6c; stroke:none;" d="M374 138L375 139L374 138M121 139L122 140L121 139M141 139L142 140L141 139M334 139L335 140L334 139M130 140L131 141L130 140z"/>
<path style="fill:#aeaeae; stroke:none;" d="M142 140L143 141L142 140z"/>
<path style="fill:#2b6a6c; stroke:none;" d="M380 140L381 141L380 140z"/>
<path style="fill:#aeaeae; stroke:none;" d="M129 141L130 142L129 141M151 141L152 142L151 141z"/>
<path style="fill:#2b6a6c; stroke:none;" d="M349 141L350 142L349 141z"/>
<path style="fill:#aeaeae; stroke:none;" d="M370 141L371 142L370 141M350 142L351 143L350 142M134 143L135 144L134 143z"/>
<path style="fill:#2b6a6c; stroke:none;" d="M339 143L340 144L339 143M367 143L368 144L367 143z"/>
<path style="fill:#aeaeae; stroke:none;" d="M382 143L383 144L382 143M117 144L118 145L117 144z"/>
<path style="fill:#2b6a6c; stroke:none;" d="M133 144L134 145L133 144M141 144L142 145L141 144z"/>
<path style="fill:#aeaeae; stroke:none;" d="M147 144L148 145L147 144z"/>
<path style="fill:#2b6a6c; stroke:none;" d="M116 145L117 146L116 145M132 145L133 146L132 145z"/>
<path style="fill:#aeaeae; stroke:none;" d="M140 145L141 146L140 145z"/>
<path style="fill:#2b6a6c; stroke:none;" d="M146 145L147 146L146 145z"/>
<path style="fill:#aeaeae; stroke:none;" d="M115 146L116 147L115 146M131 146L132 147L131 146z"/>
<path style="fill:#2b6a6c; stroke:none;" d="M155 146L156 147L155 146M182 146L183 147L182 146M114 147L115 148L114 147z"/>
<path style="fill:#aeaeae; stroke:none;" d="M124 147L125 148L124 147z"/>
<path style="fill:#2b6a6c; stroke:none;" d="M130 147L131 148L130 147M138 147L139 148L138 147z"/>
<path style="fill:#aeaeae; stroke:none;" d="M154 147L155 148L154 147z"/>
<path style="fill:#2b6a6c; stroke:none;" d="M181 147L182 148L181 147z"/>
<path style="fill:#aeaeae; stroke:none;" d="M361 147L362 148L361 147M137 148L138 149L137 148z"/>
<path style="fill:#2b6a6c; stroke:none;" d="M179 148L180 149L179 148z"/>
<path style="fill:#aeaeae; stroke:none;" d="M346 148L347 149L346 148z"/>
<path style="fill:#2b6a6c; stroke:none;" d="M355 148L356 149L355 148z"/>
<path style="fill:#aeaeae; stroke:none;" d="M386 148L387 149L386 148z"/>
<path style="fill:#2b6a6c; stroke:none;" d="M178 149L179 150L178 149M322 149L323 150L322 149M347 149L348 150L347 149z"/>
<path style="fill:#aeaeae; stroke:none;" d="M354 149L355 150L354 149M358 149L359 150L358 149M142 150L143 151L142 150z"/>
<path style="fill:#2b6a6c; stroke:none;" d="M176.667 150.333L177.333 150.667L176.667 150.333M323 150L324 151L323 150M141 151L142 152L141 151M175 151L176 152L175 151M324 151L325 152L324 151z"/>
<path style="fill:#aeaeae; stroke:none;" d="M353 151L353 154L354 154L353 151M110 152L111 153L110 152z"/>
<path style="fill:#2b6a6c; stroke:none;" d="M150 152L151 153L150 152M174 152L175 153L174 152M325 152L326 153L325 152z"/>
<path style="fill:#010101; stroke:none;" d="M353 152L354 153L353 152z"/>
<path style="fill:#aeaeae; stroke:none;" d="M376 152L377 153L376 152z"/>
<path style="fill:#2b6a6c; stroke:none;" d="M389 152L390 153L389 152M109.333 153.667L109.667 154.333L109.333 153.667M133 153L134 154L133 153z"/>
<path style="fill:#aeaeae; stroke:none;" d="M149 153L150 154L149 153z"/>
<path style="fill:#2b6a6c; stroke:none;" d="M173 153L174 154L173 153M327 153L328 154L327 153M380 153L381 154L380 153z"/>
<path style="fill:#aeaeae; stroke:none;" d="M132 154L133 155L132 154z"/>
<path style="fill:#2b6a6c; stroke:none;" d="M172 154L173 155L172 154M328 154L329 155L328 154M171 155L172 156L171 155M329 155L330 156L329 155z"/>
<path style="fill:#aeaeae; stroke:none;" d="M391 155L392 156L391 155M137 156L138 157L137 156z"/>
<path style="fill:#2b6a6c; stroke:none;" d="M169.667 156.333L170.333 156.667L169.667 156.333M330 156L331 157L330 156z"/>
<path style="fill:#aeaeae; stroke:none;" d="M376 156L377 157L376 156z"/>
<path style="fill:#2b6a6c; stroke:none;" d="M136 157L137 158L136 157M168 157L169 158L168 157M331 157L332 158L331 157M354 157L355 158L354 157z"/>
<path style="fill:#aeaeae; stroke:none;" d="M370 157L371 158L370 157M383 157L384 158L383 157M114 158L115 159L114 158z"/>
<path style="fill:#2b6a6c; stroke:none;" d="M134 158L135 159L134 158M167 158L168 159L167 158M332 158L333 159L332 158z"/>
<path style="fill:#aeaeae; stroke:none;" d="M355 158L356 159L355 158M368 158L369 159L368 158z"/>
<path style="fill:#2b6a6c; stroke:none;" d="M115 159L116 160L115 159M333 159L334 160L333 159M166 160L167 161L166 160M334 160L335 161L334 160M366 160L367 161L366 160z"/>
<path style="fill:#aeaeae; stroke:none;" d="M372 160L373 161L372 160z"/>
<path style="fill:#2b6a6c; stroke:none;" d="M379 160L380 161L379 160M385 160L386 161L385 160M165 161L166 162L165 161M335 161L336 162L335 161M357 161L358 162L357 161z"/>
<path style="fill:#aeaeae; stroke:none;" d="M142 162L143 163L142 162z"/>
<path style="fill:#2b6a6c; stroke:none;" d="M164 162L165 163L164 162M336 162L337 163L336 162z"/>
<path style="fill:#aeaeae; stroke:none;" d="M120 163L121 164L120 163z"/>
<path style="fill:#2b6a6c; stroke:none;" d="M163 163L164 164L163 163M337 163L338 164L337 163z"/>
<path style="fill:#aeaeae; stroke:none;" d="M368 163L369 164L368 163M381 163L382 164L381 163z"/>
<path style="fill:#2b6a6c; stroke:none;" d="M121 164L122 165L121 164M162 164L163 165L162 164M338 164L339 165L338 164z"/>
<path style="fill:#aeaeae; stroke:none;" d="M388 164L389 165L388 164z"/>
<path style="fill:#2b6a6c; stroke:none;" d="M397.333 164.667L397.667 165.333L397.333 164.667M161 165L162 166L161 165M339 165L339 167L341 167L339 165z"/>
<path style="fill:#aeaeae; stroke:none;" d="M360 165L361 166L360 165z"/>
<path style="fill:#2b6a6c; stroke:none;" d="M375 165L376 166L375 165M160 166L161 167L160 166M159 167L160 168L159 167M341 167L342 168L341 167z"/>
<path style="fill:#aeaeae; stroke:none;" d="M377 167L378 168L377 167z"/>
<path style="fill:#2b6a6c; stroke:none;" d="M394 167L395 168L394 167z"/>
<path style="fill:#aeaeae; stroke:none;" d="M126 168L127 169L126 168z"/>
<path style="fill:#2b6a6c; stroke:none;" d="M158 168L159 169L158 168M342.333 168.667L342.667 169.333L342.333 168.667M372 168L373 169L372 168M385 168L386 169L385 168M127 169L128 170L127 169M157 169L158 170L157 169M363 169L364 170L363 169z"/>
<path style="fill:#aeaeae; stroke:none;" d="M385 169L386 170L385 169z"/>
<path style="fill:#2b6a6c; stroke:none;" d="M135 170L136 171L135 170M156.333 170.667L156.667 171.333L156.333 170.667M343 170L344 171L343 170z"/>
<path style="fill:#aeaeae; stroke:none;" d="M379 170L380 171L379 170M134 171L135 172L134 171z"/>
<path style="fill:#2b6a6c; stroke:none;" d="M344 171L345 172L344 171z"/>
<path style="fill:#aeaeae; stroke:none;" d="M374 171L375 172L374 171z"/>
<path style="fill:#2b6a6c; stroke:none;" d="M155 172L156 173L155 172M345 172L346 173L345 172M129 173L130 174L129 173z"/>
<path style="fill:#aeaeae; stroke:none;" d="M131.667 173.333L132.333 173.667L131.667 173.333z"/>
<path style="fill:#2b6a6c; stroke:none;" d="M154 173L155 174L154 173z"/>
<path style="fill:#aeaeae; stroke:none;" d="M262.667 173.333L263.333 173.667L262.667 173.333z"/>
<path style="fill:#f9fdfe; stroke:none;" d="M176 270L176 268C189 265.5 191.876 281.68 202.955 282.828C211.721 283.736 202.79 272.82 200.996 271C192.724 262.608 184.323 254.341 176 246C174.264 244.26 168.029 239.597 169.346 236.582C170.733 233.405 176.011 239.051 177 240.008C183.256 246.063 189.007 253.481 196 258.681C198.316 260.403 203.051 261.976 204.029 257.852C204.853 254.378 201.097 251.181 198.985 249C193.087 242.908 186.984 237.007 181 231C179.502 229.497 173.007 224.412 175.06 221.752C177.159 219.033 182.773 225.783 184 227.001C190.663 233.616 197.06 240.617 204 246.941C205.991 248.756 210.441 252.549 212.953 249.253C215.65 245.715 209.592 240.339 207.575 238C201.694 231.179 186.368 223.029 188 213C196.562 217.442 203.229 226.242 210 233C212.666 235.661 216.576 241.002 220.887 240.534C225.019 240.085 224.162 235.454 222.471 233.039C220.06 229.598 203.39 218.552 206.192 213.635C207.659 211.06 214.203 218.106 217.392 215.214C219.995 212.853 217.797 209.14 215.852 207.225C209.033 200.512 204.864 205.511 197.715 206.771C190.114 208.11 183.941 202.359 179 212C166.801 210.1 168.055 218.76 164.85 226.83C162.973 231.554 158.945 234.252 160.438 240C162.3 247.177 170.936 253.933 176 259C157.015 267.374 176.515 281.515 185 290C202.4 307.4 220.952 324.853 247 312.507C252.572 309.866 257.427 305.973 261.073 300.999C272.035 286.045 271.58 265.315 259.674 251C249.961 239.322 234.704 230.04 235.054 213C235.43 194.664 253.804 179.036 272 182.468C281.497 184.259 288.403 190.406 295 197L320 222C306.596 225.706 303.124 206.472 292.148 207.662C285.116 208.424 293.353 218.122 295.09 220C302.701 228.228 311.047 236.085 319.001 243.996C320.578 245.565 327.875 250.697 325.963 253.493C323.976 256.4 319.307 251.241 318 249.984C311.949 244.164 306.432 237.547 300 232.149C298.046 230.509 294.176 227.914 292.427 231.323C290.763 234.565 294.045 237.856 296.045 240C302.024 246.412 308.291 252.488 314.17 259C315.465 260.435 323.12 266.78 320.248 269.079C317.58 271.215 312.914 264.537 311.576 263C305.196 255.675 297.851 248.793 290.715 242.229C288.587 240.272 284.269 237.932 282.238 241.438C278.801 247.368 298.154 262.138 302 266C303.634 267.641 309.049 271.693 307.793 274.534C306.339 277.825 300.177 271.591 299.001 270.575C292.505 264.963 287.683 257.659 281 252.229C278.747 250.398 274.178 247.829 272.086 251.438C268.098 258.319 287.955 268.833 289.793 274.922C291.473 280.484 278.312 270.475 276.832 277.148C274.298 288.57 293.165 287.773 298 282L299 282C305.066 287.684 313.387 284.795 317 278C326.633 279.499 332.11 271.972 330 263C345.27 253.334 325.835 239.283 320 231C339.53 223.178 319.031 209.54 311.576 200.999C296.6 183.843 275.13 165.465 251 176.644C245.851 179.03 241.287 182.574 237.301 186.579C222.621 201.331 225.073 225.888 237.465 241C246.502 252.021 260.143 260.093 260.737 276C261.661 300.732 230.805 318.108 211 302.61C198.905 293.145 189.518 277.012 176 270z"/>
<path style="fill:#aeaeae; stroke:none;" d="M269 173L269 174L272 174L269 173z"/>
<path style="fill:#2b6a6c; stroke:none;" d="M346.333 173.667L346.667 174.333L346.333 173.667z"/>
<path style="fill:#aeaeae; stroke:none;" d="M366 173L367 174L366 173M375 173L376 174L375 173z"/>
<path style="fill:#2b6a6c; stroke:none;" d="M124 174L125 175L124 174M153 174L154 175L153 174z"/>
<path style="fill:#aeaeae; stroke:none;" d="M257 174L258 175L257 174M276 174L277 175L276 174M119 175L120 176L119 175z"/>
<path style="fill:#2b6a6c; stroke:none;" d="M152.333 175.667L152.667 176.333L152.333 175.667z"/>
<path style="fill:#aeaeae; stroke:none;" d="M253 175L254 176L253 175M279 175L280 176L279 175z"/>
<path style="fill:#2b6a6c; stroke:none;" d="M347 175L348 176L347 175z"/>
<path style="fill:#aeaeae; stroke:none;" d="M114 176L115 177L114 176M282 176L283 177L282 176z"/>
<path style="fill:#2b6a6c; stroke:none;" d="M348 176L349 177L348 176M368 176L369 177L368 176z"/>
<path style="fill:#aeaeae; stroke:none;" d="M109 177L110 178L109 177z"/>
<path style="fill:#2b6a6c; stroke:none;" d="M151 177L152 178L151 177z"/>
<path style="fill:#aeaeae; stroke:none;" d="M249 177L250 178L249 177M284 177L285 178L284 177z"/>
<path style="fill:#2b6a6c; stroke:none;" d="M349.333 177.667L349.667 178.333L349.333 177.667M378 177L379 178L378 177z"/>
<path style="fill:#f9fdfe; stroke:none;" d="M392 203C385.765 199.36 386.051 188.522 383 182L381 182C375.148 191.502 377.368 206.561 387.04 213.297C396.576 219.938 402.121 210.939 400.112 202C399.206 197.971 398.119 193.974 397 190C403.194 193.238 404.21 205.457 406 212C416.508 204.066 411.414 185.126 400.996 178.858C393.426 174.303 387.873 180.376 388.794 188C389.41 193.099 391.314 197.91 392 203z"/>
<path style="fill:#aeaeae; stroke:none;" d="M129 178L130 179L129 178z"/>
<path style="fill:#2b6a6c; stroke:none;" d="M150.333 178.667L150.667 179.333L150.333 178.667z"/>
<path style="fill:#aeaeae; stroke:none;" d="M247 178L248 179L247 178M286 178L287 179L286 178z"/>
<path style="fill:#2b6a6c; stroke:none;" d="M98 179L99 180L98 179z"/>
<path style="fill:#aeaeae; stroke:none;" d="M288 179L289 180L288 179z"/>
<path style="fill:#2b6a6c; stroke:none;" d="M350 179L351 180L350 179M149 180L150 181L149 180z"/>
<path style="fill:#aeaeae; stroke:none;" d="M244 180L245 181L244 180M371 180L372 181L371 180z"/>
<path style="fill:#2b6a6c; stroke:none;" d="M403 180L404 181L403 180M148.333 181.667L148.667 182.333L148.333 181.667M351 181L352 182L351 181z"/>
<path style="fill:#aeaeae; stroke:none;" d="M382 181L383 182L382 181z"/>
<path style="fill:#2b6a6c; stroke:none;" d="M404 181L405 182L404 181z"/>
<path style="fill:#aeaeae; stroke:none;" d="M241 182L242 183L241 182M261.667 182.333L262.333 182.667L261.667 182.333M271.667 182.333L272.333 182.667L271.667 182.333z"/>
<path style="fill:#2b6a6c; stroke:none;" d="M352.333 182.667L352.667 183.333L352.333 182.667M376 182L377 183L376 182z"/>
<path style="fill:#aeaeae; stroke:none;" d="M383 182L384 183L383 182z"/>
<path style="fill:#2b6a6c; stroke:none;" d="M388 182L389 183L388 182M94 183L95 184L94 183M127 183L128 184L127 183M147.333 183.667L147.667 184.333L147.333 183.667z"/>
<path style="fill:#aeaeae; stroke:none;" d="M240 183L241 184L240 183M257 183L258 184L257 183M276 183L277 184L276 183M388 183L389 184L388 183M239 184L240 185L239 184M254 184L255 185L254 184M294 184L295 185L294 184z"/>
<path style="fill:#2b6a6c; stroke:none;" d="M353 184L354 185L353 184z"/>
<path style="fill:#aeaeae; stroke:none;" d="M379 184L380 185L379 184M126 185L127 186L126 185z"/>
<path style="fill:#2b6a6c; stroke:none;" d="M146 185L147 186L146 185z"/>
<path style="fill:#aeaeae; stroke:none;" d="M238 185L239 186L238 185M252 185L253 186L252 185M295 185L296 186L295 185M384 185L385 186L384 185M237 186L238 187L237 186M250 186L251 187L250 186M296 186L297 187L296 186z"/>
<path style="fill:#2b6a6c; stroke:none;" d="M354 186L355 187L354 186z"/>
<path style="fill:#aeaeae; stroke:none;" d="M388 186L389 187L388 186M108 187L109 188L108 187z"/>
<path style="fill:#2b6a6c; stroke:none;" d="M109 187L110 188L109 187z"/>
<path style="fill:#010101; stroke:none;" d="M103 188L109 196L112 187L103 188z"/>
<path style="fill:#aeaeae; stroke:none;" d="M120 187L121 188L120 187z"/>
<path style="fill:#2b6a6c; stroke:none;" d="M145 187L146 188L145 187M355.333 187.667L355.667 188.333L355.333 187.667z"/>
<path style="fill:#aeaeae; stroke:none;" d="M385 187L386 188L385 187z"/>
<path style="fill:#2b6a6c; stroke:none;" d="M388 187L389 188L388 187M408 187L409 188L408 187M102 188L103 189L102 188M144.333 188.667L144.667 189.333L144.333 188.667z"/>
<path style="fill:#aeaeae; stroke:none;" d="M235 188L236 189L235 188M247 188L248 189L247 188M286 188L287 189L286 188z"/>
<path style="fill:#2b6a6c; stroke:none;" d="M377 188L378 189L377 188z"/>
<path style="fill:#aeaeae; stroke:none;" d="M111 189L112 190L111 189M234 189L235 190L234 189M246 189L247 190L246 189M287 189L288 190L287 189z"/>
<path style="fill:#2b6a6c; stroke:none;" d="M356.333 189.667L356.667 190.333L356.333 189.667z"/>
<path style="fill:#aeaeae; stroke:none;" d="M377 189L378 190L377 189M91 190L92 191L91 190z"/>
<path style="fill:#2b6a6c; stroke:none;" d="M103 190L104 191L103 190M119 190L120 191L119 190M143.333 190.667L143.667 191.333L143.333 190.667z"/>
<path style="fill:#aeaeae; stroke:none;" d="M245 190L246 191L245 190M386 190L387 191L386 190z"/>
<path style="fill:#2b6a6c; stroke:none;" d="M397 190L398 191L397 190M399 190L400 191L399 190M110 191L111 192L110 191z"/>
<path style="fill:#aeaeae; stroke:none;" d="M244 191L245 192L244 191z"/>
<path style="fill:#2b6a6c; stroke:none;" d="M357.333 191.667L357.667 192.333L357.333 191.667z"/>
<path style="fill:#aeaeae; stroke:none;" d="M397 191L398 192L397 191M92 192L93 193L92 192M104 192L105 193L104 192M118 192L119 193L118 192z"/>
<path style="fill:#2b6a6c; stroke:none;" d="M142 192L141 197L142 197L142 192z"/>
<path style="fill:#aeaeae; stroke:none;" d="M232 192L233 193L232 192M243 192L244 193L243 192z"/>
<path style="fill:#2b6a6c; stroke:none;" d="M389 192L390 193L389 192z"/>
<path style="fill:#aeaeae; stroke:none;" d="M242 193L243 194L242 193z"/>
<path style="fill:#2b6a6c; stroke:none;" d="M358.333 193.667L358.667 194.333L358.333 193.667z"/>
<path style="fill:#aeaeae; stroke:none;" d="M109 194L110 195L109 194M231 194L232 195L231 194M292 194L293 195L292 194M377 194L378 195L377 194z"/>
<path style="fill:#2b6a6c; stroke:none;" d="M387 194L388 195L387 194M117 195L118 196L117 195z"/>
<path style="fill:#aeaeae; stroke:none;" d="M293 195L294 196L293 195z"/>
<path style="fill:#2b6a6c; stroke:none;" d="M359.333 195.667L359.667 196.333L359.333 195.667M377 195L378 196L377 195z"/>
<path style="fill:#aeaeae; stroke:none;" d="M390 195L391 196L390 195M398 195L399 196L398 195z"/>
<path style="fill:#2b6a6c; stroke:none;" d="M108 196L109 197L108 196z"/>
<path style="fill:#aeaeae; stroke:none;" d="M230 196L231 197L230 196M240 196L241 197L240 196M294 196L295 197L294 196M402 196L403 197L402 196M411 196L412 197L411 196M116 197L117 198L116 197z"/>
<path style="fill:#2b6a6c; stroke:none;" d="M140.333 197.667L140.667 198.333L140.333 197.667z"/>
<path style="fill:#aeaeae; stroke:none;" d="M239 197L240 198L239 197M295 197L296 198L295 197M229 198L230 199L229 198M296 198L297 199L296 198z"/>
<path style="fill:#2b6a6c; stroke:none;" d="M360 198L361 199L360 198z"/>
<path style="fill:#aeaeae; stroke:none;" d="M97 199L98 200L97 199z"/>
<path style="fill:#2b6a6c; stroke:none;" d="M139 199L139 202L140 202L139 199z"/>
<path style="fill:#aeaeae; stroke:none;" d="M238 199L239 200L238 199M297 199L298 200L297 199z"/>
<path style="fill:#2b6a6c; stroke:none;" d="M378 199L379 200L378 199z"/>
<path style="fill:#aeaeae; stroke:none;" d="M387 199L388 200L387 199z"/>
<path style="fill:#2b6a6c; stroke:none;" d="M391 199L392 200L391 199z"/>
<path style="fill:#aeaeae; stroke:none;" d="M399 199L400 200L399 199M298 200L299 201L298 200z"/>
<path style="fill:#2b6a6c; stroke:none;" d="M361.333 200.667L361.667 201.333L361.333 200.667z"/>
<path style="fill:#aeaeae; stroke:none;" d="M237.333 201.667L237.667 202.333L237.333 201.667M299 201L300 202L299 201M388 201L389 202L388 201z"/>
<path style="fill:#2b6a6c; stroke:none;" d="M99 202L100 203L99 202z"/>
<path style="fill:#aeaeae; stroke:none;" d="M114 202L115 203L114 202z"/>
<path style="fill:#2b6a6c; stroke:none;" d="M138.333 202.667L138.667 203.333L138.333 202.667z"/>
<path style="fill:#aeaeae; stroke:none;" d="M300 202L301 203L300 202M312 202L313 203L312 202z"/>
<path style="fill:#2b6a6c; stroke:none;" d="M362.333 202.667L362.667 203.333L362.333 202.667M379 202L380 203L379 202z"/>
<path style="fill:#aeaeae; stroke:none;" d="M203.667 203.333L204.333 203.667L203.667 203.333M209.667 203.333L210.333 203.667L209.667 203.333M228 203L229 204L228 203M301 203L302 204L301 203M313 203L314 204L313 203M400 203L401 204L400 203z"/>
<path style="fill:#2b6a6c; stroke:none;" d="M137 204L137 207L138 207L137 204z"/>
<path style="fill:#aeaeae; stroke:none;" d="M201 204L202 205L201 204M212 204L213 205L212 204M236.333 204.667L236.667 205.333L236.333 204.667M302 204L303 205L302 204M314 204L315 205L314 204M380 204L381 205L380 204M403 204L404 205L403 204M185.667 205.333L186.333 205.667L185.667 205.333M192 205L193 206L192 205M200 205L201 206L200 205M303 205L304 206L303 205M315 205L316 206L315 205z"/>
<path style="fill:#2b6a6c; stroke:none;" d="M363.333 205.667L363.667 206.333L363.333 205.667z"/>
<path style="fill:#aeaeae; stroke:none;" d="M411 205L412 206L411 205M102 206L103 207L102 206M115 206L116 207L115 206M183 206L184 207L183 206M194 206L195 207L194 206M292 206L293 207L292 206M304 206L305 207L304 206M316 206L317 207L316 206z"/>
<path style="fill:#2b6a6c; stroke:none;" d="M116 207L117 208L116 207M136 207L136 210L137 210L136 207z"/>
<path style="fill:#aeaeae; stroke:none;" d="M182 207L183 208L182 207M196 207L197 208L196 207M198 207L199 208L198 207M227.333 207.667L227.667 208.333L227.333 207.667M290 207L291 208L290 207M294 207L295 208L294 207M305 207L306 208L305 207M317 207L318 208L317 207M404 207L405 208L404 207z"/>
<path style="fill:#2b6a6c; stroke:none;" d="M117 208L118 209L117 208z"/>
<path style="fill:#aeaeae; stroke:none;" d="M217 208L218 209L217 208M235 208L235 211L236 211L235 208M296 208L297 209L296 208z"/>
<path style="fill:#2b6a6c; stroke:none;" d="M364.333 208.667L364.667 209.333L364.333 208.667M382 208L383 209L382 208z"/>
<path style="fill:#aeaeae; stroke:none;" d="M104 209L105 210L104 209M218 209L219 210L218 209M288 209L288 212L289 212L288 209M297 209L298 210L297 209M405 209L406 210L405 209z"/>
<path style="fill:#2b6a6c; stroke:none;" d="M135 210L135 213L136 213L135 210z"/>
<path style="fill:#aeaeae; stroke:none;" d="M298 210L299 211L298 210M173.667 211.333L174.333 211.667L173.667 211.333M177.667 211.333L178.333 211.667L177.667 211.333M206.667 211.333L207.333 211.667L206.667 211.333M219 211L219 214L220 214L219 211M299 211L300 212L299 211z"/>
<path style="fill:#2b6a6c; stroke:none;" d="M365.333 211.667L365.667 212.333L365.333 211.667z"/>
<path style="fill:#aeaeae; stroke:none;" d="M400 211L401 212L400 211z"/>
<path style="fill:#2b6a6c; stroke:none;" d="M106 212L107 213L106 212z"/>
<path style="fill:#aeaeae; stroke:none;" d="M300 212L301 213L300 212z"/>
<path style="fill:#2b6a6c; stroke:none;" d="M115 213L116 214L115 213M134 213L133 221L134 221L134 213z"/>
<path style="fill:#aeaeae; stroke:none;" d="M169 213L170 214L169 213M204.333 213.667L204.667 214.333L204.333 213.667M289 213L290 214L289 213M301 213L302 214L301 213M399 213L400 214L399 213M191 214L192 215L191 214M290 214L291 215L290 214M302 214L303 215L302 214M312 214L313 215L312 214M388 214L389 215L388 214M398 214L399 215L398 214M192 215L193 216L192 215M291 215L292 216L291 215M303 215L304 216L303 215M313 215L314 216L313 215z"/>
<path style="fill:#2b6a6c; stroke:none;" d="M366.333 215.667L366.667 216.333L366.333 215.667z"/>
<path style="fill:#aeaeae; stroke:none;" d="M391 215L392 216L391 215M396 215L397 216L396 215M109 216L110 217L109 216M193 216L194 217L193 216M216 216L217 217L216 216M235 216L235 219L236 219L235 216M304 216L305 217L304 216M314 216L315 217L314 216M166 217L167 218L166 217M194 217L195 218L194 217M305 217L306 218L305 217M315 217L316 218L315 217z"/>
<path style="fill:#2b6a6c; stroke:none;" d="M113 218L114 219L113 218z"/>
<path style="fill:#aeaeae; stroke:none;" d="M187 218L188 219L187 218M195 218L196 219L195 218M227.333 218.667L227.667 219.333L227.333 218.667M306 218L307 219L306 218M316 218L317 219L316 218M328 218L329 219L328 218M111 219L112 220L111 219M188 219L189 220L188 219M196 219L197 220L196 219M208 219L209 220L208 219M307 219L308 220L307 219M317 219L318 220L317 219z"/>
<path style="fill:#2b6a6c; stroke:none;" d="M367.333 219.667L367.667 220.333L367.333 219.667z"/>
<path style="fill:#aeaeae; stroke:none;" d="M112 220L113 221L112 220M165 220L166 221L165 220M174 220L175 221L174 220M177 220L178 221L177 220M189 220L190 221L189 220M197 220L198 221L197 220M209 220L210 221L209 220M318 220L319 221L318 220z"/>
<path style="fill:#2b6a6c; stroke:none;" d="M132 221L132 226L133 226L132 221z"/>
<path style="fill:#aeaeae; stroke:none;" d="M190 221L191 222L190 221M198 221L199 222L198 221M210 221L211 222L210 221M310 221L311 222L310 221M319 221L320 222L319 221M179 222L180 223L179 222M191 222L192 223L191 222M199 222L200 223L199 222M211 222L212 223L211 222M236 222L237 223L236 222M173 223L174 224L173 223M180 223L181 224L180 223M192 223L193 224L192 223M200 223L201 224L200 223M212 223L213 224L212 223M228.333 223.667L228.667 224.333L228.333 223.667M315.667 223.333L316.333 223.667L315.667 223.333M165.333 224.667L165.667 225.333L165.333 224.667M181 224L182 225L181 224M193 224L194 225L193 224M201 224L202 225L201 224M213 224L214 225L213 224M328 224L329 225L328 224z"/>
<path style="fill:#2b6a6c; stroke:none;" d="M368 224L368 227L369 227L368 224z"/>
<path style="fill:#aeaeae; stroke:none;" d="M194 225L195 226L194 225M202 225L203 226L202 225M214 225L215 226L214 225M237 225L238 226L237 225z"/>
<path style="fill:#2b6a6c; stroke:none;" d="M131 226L131 234L132 234L131 226z"/>
<path style="fill:#aeaeae; stroke:none;" d="M195 226L196 227L195 226M203 226L204 227L203 226M215 226L216 227L215 226M327 226L328 227L327 226M196 227L197 228L196 227M204 227L205 228L204 227M216 227L217 228L216 227M238 227L239 228L238 227M164 228L165 229L164 228M197 228L198 229L197 228M205 228L206 229L205 228M217 228L218 229L217 228M229 228L230 229L229 228M179 229L180 230L179 229M297 229L298 230L297 229M305 229L306 230L305 229M323 229L324 230L323 229M180 230L181 231L180 230M187 230L188 231L187 230M230 230L231 231L230 230M240 230L241 231L240 230M298 230L299 231L298 230M306 230L307 231L306 230M321 230L322 231L321 230z"/>
<path style="fill:#2b6a6c; stroke:none;" d="M369 230L369 234L370 234L369 230z"/>
<path style="fill:#aeaeae; stroke:none;" d="M161 231L162 232L161 231M181 231L182 232L181 231M188 231L189 232L188 231M208 231L209 232L208 231M299 231L300 232L299 231M307 231L308 232L307 231M182 232L183 233L182 232M189 232L190 233L189 232M209 232L210 233L209 232M231 232L232 233L231 232M291 232L292 233L291 232M300 232L301 233L300 232M308 232L309 233L308 232M320 232L321 233L320 232M160 233L161 234L160 233M183 233L184 234L183 233M190 233L191 234L190 233M210 233L211 234L210 233M242 233L243 234L242 233M301 233L302 234L301 233M309 233L310 234L309 233M321 233L322 234L321 233M170.667 234.333L171.333 234.667L170.667 234.333M184 234L185 235L184 234M191 234L192 235L191 234M211 234L212 235L211 234M232 234L233 235L232 234M243 234L244 235L243 234M291 234L292 235L291 234M302 234L303 235L302 234M310 234L311 235L310 234M322 234L323 235L322 234z"/>
<path style="fill:#2b6a6c; stroke:none;" d="M130 235L130 256L131 256L130 235z"/>
<path style="fill:#aeaeae; stroke:none;" d="M168 235L169 236L168 235M185 235L186 236L185 235M192 235L193 236L192 235M212 235L213 236L212 235M233 235L234 236L233 235M244 235L245 236L244 235M303 235L304 236L303 235M311 235L312 236L311 235M323 235L324 236L323 235M186 236L187 237L186 236M193 236L194 237L193 236M213 236L214 237L213 236M224 236L225 237L224 236M245 236L246 237L245 236M292 236L293 237L292 236M304 236L305 237L304 236M324 236L325 237L324 236M194 237L195 238L194 237M214 237L215 238L214 237M234 237L235 238L234 237M246 237L247 238L246 237M293 237L294 238L293 237M305 237L306 238L305 237M325 237L326 238L325 237M168 238L169 239L168 238M195 238L196 239L195 238M215 238L216 239L215 238M224 238L225 239L224 238M235 238L236 239L235 238M247 238L248 239L247 238M294 238L295 239L294 238M306 238L307 239L306 238M326 238L327 239L326 238M196 239L197 240L196 239M208 239L209 240L208 239M216 239L217 240L216 239M236 239L237 240L236 239M248 239L249 240L248 239M283 239L284 240L283 239M287 239L288 240L287 239M295 239L296 240L295 239M307 239L308 240L307 239M327 239L328 240L327 239M197 240L198 241L197 240M209 240L210 241L209 240M217 240L218 241L217 240M249 240L250 241L249 240M296 240L297 241L296 240M308 240L309 241L308 240M328 240L329 241L328 240z"/>
<path style="fill:#2b6a6c; stroke:none;" d="M370 240L370 252L371 252L370 240z"/>
<path style="fill:#aeaeae; stroke:none;" d="M160 241L161 242L160 241M198 241L199 242L198 241M210 241L211 242L210 241M219.667 241.333L220.333 241.667L219.667 241.333M281 241L282 242L281 241M297 241L298 242L297 241M309 241L310 242L309 241M329 241L330 242L329 241M199 242L200 243L199 242M211 242L212 243L211 242M298 242L299 243L298 242M310 242L311 243L310 242M330 242L331 243L330 242M161 243L162 244L161 243M200 243L201 244L200 243M212 243L213 244L212 243M299 243L300 244L299 243M311 243L312 244L311 243M331 243L332 244L331 243M162 244L163 245L162 244M201 244L202 245L201 244M213 244L214 245L213 244M292 244L293 245L292 244M300 244L301 245L300 244M332 244L333 245L332 244M163 245L164 246L163 245M202 245L203 246L202 245M293 245L294 246L293 245M301 245L302 246L301 245M164 246L165 247L164 246M203 246L204 247L203 246M214.333 246.667L214.667 247.333L214.333 246.667M282 246L283 247L282 246M294 246L295 247L294 246M302 246L303 247L302 246M333 246L334 247L333 246M165 247L166 248L165 247M204 247L205 248L204 247M283 247L284 248L283 247M295 247L296 248L295 247M303 247L304 248L303 247M334 247L335 248L334 247M166 248L167 249L166 248M205 248L206 249L205 248M284 248L285 249L284 248M296 248L297 249L296 248M304 248L305 249L304 248M206 249L207 250L206 249M273 249L274 250L273 249M277 249L278 250L277 249M285 249L286 250L285 249M297 249L298 250L297 249M305 249L306 250L305 249M335.333 249.667L335.667 250.333L335.333 249.667M180 250L181 251L180 250M200 250L201 251L200 250M212 250L213 251L212 250M247 250L248 251L247 250M259 250L260 251L259 250M318 250L319 251L318 250M326 250L327 251L326 250M181 251L182 252L181 251M201 251L202 252L201 251M248 251L249 252L248 251M319 251L320 252L319 251M182 252L183 253L182 252M202 252L203 253L202 252M249 252L250 253L249 252M320 252L321 253L320 252M183 253L184 254L183 253M203 253L204 254L203 253M261 253L262 254L261 253M321 253L322 254L321 253M327 253L328 254L327 253M184 254L185 255L184 254M262 254L263 255L262 254M310 254L311 255L310 254M322 254L323 255L322 254M185 255L186 256L185 255M204 255L205 256L204 255M311 255L312 256L311 255M324.667 255.333L325.333 255.667L324.667 255.333M335.333 255.667L335.667 256.333L335.333 255.667M186 256L187 257L186 256M263 256L264 257L263 256M272 256L273 257L272 256M292 256L293 257L292 256z"/>
<path style="fill:#2b6a6c; stroke:none;" d="M131 257L131 264L132 264L131 257z"/>
<path style="fill:#aeaeae; stroke:none;" d="M273 257L274 258L273 257M293 257L294 258L293 257z"/>
<path style="fill:#2b6a6c; stroke:none;" d="M369 257L369 262L370 262L369 257z"/>
<path style="fill:#aeaeae; stroke:none;" d="M204 258L205 259L204 258M254 258L255 259L254 258M274 258L275 259L274 258M294 258L295 259L294 258M334 258L335 259L334 258M174 259L175 260L174 259M275 259L276 260L275 259M295 259L296 260L295 259M172 260L173 261L172 260M265 260L266 261L265 260M276 260L277 261L276 260M296 260L297 261L296 260M256 261L257 262L256 261M277 261L278 262L277 261M297 261L298 262L297 261M169 262L170 263L169 262M266 262L267 263L266 262M278 262L279 263L278 262M298 262L299 263L298 262M331 262L332 263L331 262M257 263L258 264L257 263M279 263L280 264L279 263M299 263L300 264L299 263M330.333 263.667L330.667 264.333L330.333 263.667M280 264L281 265L280 264M292 264L293 265L292 264M300 264L301 265L300 264M312 264L313 265L312 264z"/>
<path style="fill:#2b6a6c; stroke:none;" d="M132 265L132 270L133 270L132 265z"/>
<path style="fill:#aeaeae; stroke:none;" d="M167 265L168 266L167 265M267 265L268 266L267 265M281 265L282 266L281 265M293 265L294 266L293 265M301 265L302 266L301 265M313 265L314 266L313 265z"/>
<path style="fill:#2b6a6c; stroke:none;" d="M368 265L368 268L369 268L368 265z"/>
<path style="fill:#aeaeae; stroke:none;" d="M282 266L283 267L282 266M294 266L295 267L294 266M302 266L303 267L302 266M314 266L315 267L314 266M177.667 267.333L178.333 267.667L177.667 267.333M181 267L182 268L181 267M283 267L284 268L283 267M295 267L296 268L295 267M303 267L304 268L303 267M315 267L316 268L315 267M184 268L185 269L184 268M284 268L285 269L284 268M296 268L297 269L296 268M304 268L305 269L304 268M316 268L317 269L316 268M176 269L177 270L176 269M186 269L187 270L186 269M259 269L260 270L259 269M268 269L269 270L268 269M285 269L286 270L285 269M297 269L298 270L297 269M305 269L306 270L305 269M317 269L318 270L317 269z"/>
<path style="fill:#2b6a6c; stroke:none;" d="M133 270L133 274L134 274L133 270z"/>
<path style="fill:#aeaeae; stroke:none;" d="M177 270L178 271L177 270M187 270L188 271L187 270M286 270L287 271L286 270M298 270L299 271L298 270M306 270L307 271L306 270M318 270L318 271L321 271L318 270z"/>
<path style="fill:#2b6a6c; stroke:none;" d="M367.333 270.667L367.667 271.333L367.333 270.667z"/>
<path style="fill:#aeaeae; stroke:none;" d="M201 271L202 272L201 271M202 272L203 273L202 272M203 273L204 274L203 273M260 273L260 280L261 280L260 273M279 273L279 274L282 274L279 273M309.333 273.667L309.667 274.333L309.333 273.667z"/>
<path style="fill:#2b6a6c; stroke:none;" d="M134 274L134 277L135 277L134 274z"/>
<path style="fill:#aeaeae; stroke:none;" d="M204 274L205 275L204 274M277 274L278 275L277 274M283 274L284 275L283 274M328 274L329 275L328 274z"/>
<path style="fill:#2b6a6c; stroke:none;" d="M366.333 274.667L366.667 275.333L366.333 274.667z"/>
<path style="fill:#aeaeae; stroke:none;" d="M205 275L206 276L205 275M284 275L285 276L284 275M291.333 275.667L291.667 276.333L291.333 275.667M327 275L328 276L327 275M206 276L207 277L206 276M285 276L286 277L285 276M305 276L306 277L305 276M307 276L308 277L307 276M326 276L327 277L326 276M286 277L287 278L286 277z"/>
<path style="fill:#2b6a6c; stroke:none;" d="M135 278L135 281L136 281L135 278z"/>
<path style="fill:#aeaeae; stroke:none;" d="M207 278L208 279L207 278M287 278L287 279L290 279L287 278M317.667 278.333L318.333 278.667L317.667 278.333M321.667 278.333L322.333 278.667L321.667 278.333z"/>
<path style="fill:#2b6a6c; stroke:none;" d="M365.333 278.667L365.667 279.333L365.333 278.667z"/>
<path style="fill:#aeaeae; stroke:none;" d="M197 279L198 280L197 279M276 279L277 280L276 279M198 280L199 281L198 280M207 280L208 281L207 280z"/>
<path style="fill:#2b6a6c; stroke:none;" d="M136 281L136 284L137 284L136 281z"/>
<path style="fill:#aeaeae; stroke:none;" d="M188 281L189 282L188 281M199 281L200 282L199 281z"/>
<path style="fill:#2b6a6c; stroke:none;" d="M364.333 281.667L364.667 282.333L364.333 281.667z"/>
<path style="fill:#aeaeae; stroke:none;" d="M189 282L190 283L189 282M200 282L201 283L200 282M206 282L207 283L206 282M298 282L299 283L298 282M190 283L191 284L190 283M202 283L203 284L202 283M204 283L205 284L204 283z"/>
<path style="fill:#2b6a6c; stroke:none;" d="M137 284L137 287L138 287L137 284z"/>
<path style="fill:#aeaeae; stroke:none;" d="M191 284L192 285L191 284M259 284L260 285L259 284M268 284L269 285L268 284M311 284L312 285L311 284z"/>
<path style="fill:#2b6a6c; stroke:none;" d="M363.333 284.667L363.667 285.333L363.333 284.667z"/>
<path style="fill:#aeaeae; stroke:none;" d="M192 285L193 286L192 285M282 285L283 286L282 285M294 285L295 286L294 285M304 285L304 286L309 286L304 285M193 286L194 287L193 286M284 286L285 287L284 286z"/>
<path style="fill:#2b6a6c; stroke:none;" d="M138.333 287.667L138.667 288.333L138.333 287.667z"/>
<path style="fill:#aeaeae; stroke:none;" d="M194 287L195 288L194 287M288.667 287.333L289.333 287.667L288.667 287.333z"/>
<path style="fill:#2b6a6c; stroke:none;" d="M362 287L363 288L362 287z"/>
<path style="fill:#aeaeae; stroke:none;" d="M195 288L196 289L195 288M267 288L268 289L267 288M196 289L197 290L196 289z"/>
<path style="fill:#2b6a6c; stroke:none;" d="M361.333 289.667L361.667 290.333L361.333 289.667M139.333 290.667L139.667 291.333L139.333 290.667z"/>
<path style="fill:#aeaeae; stroke:none;" d="M197 290L198 291L197 290M257 290L258 291L257 290M198 291L199 292L198 291M266 291L267 292L266 291z"/>
<path style="fill:#2b6a6c; stroke:none;" d="M140.333 292.667L140.667 293.333L140.333 292.667M360 292L361 293L360 292z"/>
<path style="fill:#aeaeae; stroke:none;" d="M188 293L189 294L188 293M255 293L256 294L255 293M265 293L266 294L265 293z"/>
<path style="fill:#2b6a6c; stroke:none;" d="M141.333 294.667L141.667 295.333L141.333 294.667z"/>
<path style="fill:#aeaeae; stroke:none;" d="M202 294L203 295L202 294z"/>
<path style="fill:#2b6a6c; stroke:none;" d="M359 294L360 295L359 294z"/>
<path style="fill:#aeaeae; stroke:none;" d="M264 295L265 296L264 295z"/>
<path style="fill:#2b6a6c; stroke:none;" d="M142.333 296.667L142.667 297.333L142.333 296.667z"/>
<path style="fill:#aeaeae; stroke:none;" d="M253 296L254 297L253 296z"/>
<path style="fill:#2b6a6c; stroke:none;" d="M358 296L359 297L358 296z"/>
<path style="fill:#aeaeae; stroke:none;" d="M252 297L253 298L252 297M263 297L264 298L263 297z"/>
<path style="fill:#2b6a6c; stroke:none;" d="M143.333 298.667L143.667 299.333L143.333 298.667z"/>
<path style="fill:#aeaeae; stroke:none;" d="M251 298L252 299L251 298z"/>
<path style="fill:#2b6a6c; stroke:none;" d="M357 298L358 299L357 298z"/>
<path style="fill:#aeaeae; stroke:none;" d="M250 299L251 300L250 299z"/>
<path style="fill:#2b6a6c; stroke:none;" d="M144.333 300.667L144.667 301.333L144.333 300.667z"/>
<path style="fill:#aeaeae; stroke:none;" d="M261 300L262 301L261 300z"/>
<path style="fill:#2b6a6c; stroke:none;" d="M356 300L357 301L356 300z"/>
<path style="fill:#aeaeae; stroke:none;" d="M260 301L261 302L260 301z"/>
<path style="fill:#2b6a6c; stroke:none;" d="M145.333 302.667L145.667 303.333L145.333 302.667z"/>
<path style="fill:#aeaeae; stroke:none;" d="M210 302L211 303L210 302M247 302L248 303L247 302z"/>
<path style="fill:#2b6a6c; stroke:none;" d="M355 302L356 303L355 302z"/>
<path style="fill:#aeaeae; stroke:none;" d="M211 303L212 304L211 303M213 304L214 305L213 304M244 304L245 305L244 304z"/>
<path style="fill:#2b6a6c; stroke:none;" d="M354 304L355 305L354 304M146 305L147 306L146 305z"/>
<path style="fill:#aeaeae; stroke:none;" d="M215 305L216 306L215 305M242 305L243 306L242 305M217 306L218 307L217 306M240 306L241 307L240 306z"/>
<path style="fill:#2b6a6c; stroke:none;" d="M353 306L354 307L353 306M147 307L148 308L147 307z"/>
<path style="fill:#aeaeae; stroke:none;" d="M220 307L221 308L220 307M236.667 307.333L237.333 307.667L236.667 307.333z"/>
<path style="fill:#2b6a6c; stroke:none;" d="M148.333 308.667L148.667 309.333L148.333 308.667z"/>
<path style="fill:#aeaeae; stroke:none;" d="M225 308L225 309L233 309L225 308M253 308L254 309L253 308z"/>
<path style="fill:#2b6a6c; stroke:none;" d="M352 308L353 309L352 308z"/>
<path style="fill:#aeaeae; stroke:none;" d="M205 309L206 310L205 309M252 309L253 310L252 309z"/>
<path style="fill:#2b6a6c; stroke:none;" d="M351 309L352 310L351 309M149 310L150 311L149 310z"/>
<path style="fill:#aeaeae; stroke:none;" d="M250 310L251 311L250 310z"/>
<path style="fill:#2b6a6c; stroke:none;" d="M150 311L151 312L150 311z"/>
<path style="fill:#aeaeae; stroke:none;" d="M208 311L209 312L208 311M249 311L250 312L249 311z"/>
<path style="fill:#2b6a6c; stroke:none;" d="M350 311L351 312L350 311M151 312L152 313L151 312M349 312L350 313L349 312z"/>
<path style="fill:#aeaeae; stroke:none;" d="M244 313L245 314L244 313z"/>
<path style="fill:#2b6a6c; stroke:none;" d="M348 313L349 314L348 313M152 314L153 315L152 314z"/>
<path style="fill:#aeaeae; stroke:none;" d="M215 314L216 315L215 314z"/>
<path style="fill:#2b6a6c; stroke:none;" d="M153 315L154 316L153 315z"/>
<path style="fill:#aeaeae; stroke:none;" d="M219 315L220 316L219 315M238 315L239 316L238 315z"/>
<path style="fill:#2b6a6c; stroke:none;" d="M347 315L348 316L347 315z"/>
<path style="fill:#aeaeae; stroke:none;" d="M224.667 316.333L225.333 316.667L224.667 316.333M232.667 316.333L233.333 316.667L232.667 316.333z"/>
<path style="fill:#2b6a6c; stroke:none;" d="M346 316L347 317L346 316M154 317L155 318L154 317M345 317L346 318L345 317M155 318L156 319L155 318M156 319L157 320L156 319M344 319L345 320L344 319M343 320L344 321L343 320M342 321L343 322L342 321M158 322L159 323L158 322M341 322L342 323L341 322M159 323L160 324L159 323M160 324L161 325L160 324M161 325L162 326L161 325M339 325L340 326L339 325M162 326L163 327L162 326M338 326L339 327L338 326M163 327L164 328L163 327M337 327L338 328L337 327M164 328L165 329L164 328M336 328L337 329L336 328M335 329L336 330L335 329M334 330L335 331L334 330M333 331L334 332L333 331M167 332L168 333L167 332M169 333L170 334L169 333M331 333L332 334L331 333M170 334L171 335L170 334M330 334L331 335L330 334M171 335L172 336L171 335M172 336L173 337L172 336M327 336L328 337L327 336M173 337L174 338L173 337M326 337L327 338L326 337M175 338L176 339L175 338M325 338L326 339L325 338M176 339L177 340L176 339M324 339L325 340L324 339M177 340L178 341L177 340M322 340L323 341L322 340M178.667 341.333L179.333 341.667L178.667 341.333M321 341L322 342L321 341M180 342L181 343L180 342M320 342L321 343L320 342M181 343L182 344L181 343M318 343L319 344L318 343M183 344L184 345L183 344M317 344L318 345L317 344M184 345L185 346L184 345M315 345L316 346L315 345M186 346L187 347L186 346M314 346L315 347L314 346M187 347L188 348L187 347M312 347L313 348L312 347M188.667 348.333L189.333 348.667L188.667 348.333M311 348L312 349L311 348M190 349L191 350L190 349M309 349L310 350L309 349M192 350L193 351L192 350M308 350L309 351L308 350M194 351L195 352L194 351M306 351L307 352L306 351M196 352L197 353L196 352M304 352L305 353L304 352M198 353L199 354L198 353M302 353L303 354L302 353M201 354L202 355L201 354M299 354L300 355L299 354M203 355L204 356L203 355M296.667 355.333L297.333 355.667L296.667 355.333M205.667 356.333L206.333 356.667L205.667 356.333M294 356L295 357L294 356M207.667 357.333L208.333 357.667L207.667 357.333M292 357L293 358L292 357M210.667 358.333L211.333 358.667L210.667 358.333M289.667 358.333L290.333 358.667L289.667 358.333M213.667 359.333L214.333 359.667L213.667 359.333M286.667 359.333L287.333 359.667L286.667 359.333M216.667 360.333L217.333 360.667L216.667 360.333M283.667 360.333L284.333 360.667L283.667 360.333M220.667 361.333L221.333 361.667L220.667 361.333M279.667 361.333L280.333 361.667L279.667 361.333M224.667 362.333L225.333 362.667L224.667 362.333M275.667 362.333L276.333 362.667L275.667 362.333M229.667 363.333L230.333 363.667L229.667 363.333M270.667 363.333L271.333 363.667L270.667 363.333M235 364L235 365L239 365L235 364M262 364L262 365L266 365L262 364M246 365L246 366L254 366L246 365M250 378L250 379L253 379L250 378M263 378L263 379L266 379L263 378M276 378L276 379L280 379L276 378M290 378L290 379L293 379L290 378z"/>
<path style="fill:#1ac6cc; stroke:none;" d="M197 379L197 393L209 393L209 389L201 389L201 387L208 387L208 384L201 384L201 382L209 382L209 379L197 379M225 379C223.187 384.213 223.494 391.914 230 393L228 379L225 379z"/>
<path style="fill:#2b6a6c; stroke:none;" d="M228 379L228 382L229 382L228 379M247 379L248 380L247 379z"/>
<path style="fill:#1ac6cc; stroke:none;" d="M246 384L253 382L246 393L257 393L257 389L251 389C261.453 380.385 247.506 375.33 246 384z"/>
<path style="fill:#2b6a6c; stroke:none;" d="M260 379L261 380L260 379z"/>
<path style="fill:#1ac6cc; stroke:none;" d="M261.318 380.029C255.658 383.755 260.451 396.589 267.566 391.817C273.356 387.935 268.641 375.207 261.318 380.029M272 384L279 381L272 393L283 393L283 389L278 389C288.36 380.462 274.734 374.993 272 384z"/>
<path style="fill:#2b6a6c; stroke:none;" d="M287 379L288 380L287 379z"/>
<path style="fill:#1ac6cc; stroke:none;" d="M286 384L293 382L286 393L297 393L297 389L292 389C300.195 379.302 287.425 375.791 286 384z"/>
<path style="fill:#2b6a6c; stroke:none;" d="M251 381L252 382L251 381M263 381L264 382L263 381z"/>
<path style="fill:#010101; stroke:none;" d="M264 381L263 390L266 390L264 381z"/>
<path style="fill:#2b6a6c; stroke:none;" d="M265 381L266 382L265 381M276 381L277 382L276 381M278 381L279 382L278 381M290.667 381.333L291.333 381.667L290.667 381.333M201.333 382.667L201.667 383.333L201.333 382.667M212 382L213 383L212 382z"/>
<path style="fill:#1ac6cc; stroke:none;" d="M218 390L211 389C213.196 392.981 223.098 393.931 220.593 388.269C219.729 386.315 216.595 385.299 215 384L221 385C216.954 378.759 206.387 384.66 218 390z"/>
<path style="fill:#2b6a6c; stroke:none;" d="M252 382L253 383L252 382M256.333 382.667L256.667 383.333L256.333 382.667M283 382L284 383L283 382M292 382L293 383L292 382M296.333 382.667L296.667 383.333L296.333 382.667M262 383L262 388L263 388L262 383M275 383L276 384L275 383M285 383L286 384L285 383M258 384L258 388L259 388L258 384z"/>
<path style="fill:#aeaeae; stroke:none;" d="M207 385L208 386L207 385z"/>
<path style="fill:#2b6a6c; stroke:none;" d="M215 385L216 386L215 385M224 385L224 391L225 391L224 385M228 385L228 389L229 389L228 385M255 385L256 386L255 385M270.333 385.667L270.667 386.333L270.333 385.667M295 385L296 386L295 385M249 386L250 387L249 386M254 386L255 387L254 386M289 386L290 387L289 386M294 386L295 387L294 386M201.333 387.667L201.667 388.333L201.333 387.667M274 387L275 388L274 387M213.667 388.333L214.333 388.667L213.667 388.333M221 388L222 389L221 388M251 388L252 389L251 388M273 388L274 389L273 388M278 388L279 389L278 388M210 389L211 390L210 389z"/>
<path style="fill:#010101; stroke:none;" d="M214 389L214 390L218 390L214 389z"/>
<path style="fill:#1ac6cc; stroke:none;" d="M232 389L232 393L236 393L236 389L232 389z"/>
<path style="fill:#2b6a6c; stroke:none;" d="M236.333 389.667L236.667 390.333L236.333 389.667M283 389L283 393L284 393L283 389M215.667 390.333L216.333 390.667L215.667 390.333M221 390L222 391L221 390M259 390L260 391L259 390M269 390L270 391L269 390M211 391L212 392L211 391M245.333 391.667L245.667 392.333L245.333 391.667M285.333 391.667L285.667 392.333L285.333 391.667M236 392L237 393L236 392M261 392L262 393L261 392z"/>
</svg>
